<svg width="618" height="708" viewBox="0 0 618 708" fill="none" xmlns="http://www.w3.org/2000/svg">
<path style="mix-blend-mode:overlay" opacity="0.43" d="M617.971 701.562H0.0429993L231.014 201.676H387L617.971 701.562Z" fill="url(#paint0_linear)"/>
<path d="M309.007 227.582C322.262 227.582 333.007 216.837 333.007 203.582C333.007 190.327 322.262 179.582 309.007 179.582C295.752 179.582 285.007 190.327 285.007 203.582C285.007 216.837 295.752 227.582 309.007 227.582Z" fill="white"/>
<path d="M240.111 209C238.89 208.996 237.684 208.733 236.573 208.229C235.461 207.724 234.469 206.99 233.663 206.074C232.856 205.158 232.252 204.081 231.892 202.915C231.532 201.749 231.423 200.519 231.573 199.308C236.238 159.7 269.127 129 309.007 129C348.887 129 381.776 159.7 386.44 199.308C386.59 200.52 386.481 201.749 386.121 202.916C385.761 204.082 385.157 205.159 384.35 206.075C383.543 206.991 382.551 207.725 381.439 208.23C380.327 208.734 379.121 208.996 377.9 209H240.111Z" fill="#F7B66F"/>
<path d="M321.007 129.944C320.749 129.903 320.488 129.874 320.229 129.836C319.32 129.702 318.406 129.581 317.487 129.479C317.069 129.432 316.65 129.394 316.23 129.354C315.468 129.282 314.705 129.217 313.941 129.173C313.497 129.147 313.056 129.114 312.611 129.093C311.416 129.037 310.211 129 309.011 129C307.811 129 306.611 129.036 305.423 129.093C304.874 129.119 304.329 129.162 303.783 129.199C303.193 129.24 302.603 129.282 302.016 129.337C301.296 129.402 300.58 129.48 299.866 129.566C299.517 129.608 299.166 129.655 298.822 129.702C262.798 134.525 234.495 164.538 231.31 201.951C231.231 202.845 231.338 203.746 231.626 204.597C231.914 205.447 232.375 206.229 232.98 206.891C233.586 207.554 234.322 208.084 235.144 208.447C235.965 208.81 236.852 208.998 237.75 209H380.268C381.158 209.003 382.039 208.821 382.856 208.466C383.672 208.112 384.407 207.592 385.012 206.94C385.618 206.287 386.082 205.517 386.376 204.676C386.669 203.836 386.785 202.944 386.717 202.056C383.629 165.22 356.2 135.518 321.007 129.944ZM258.031 186.929C261.433 174.568 267.78 163.216 276.53 153.846C285.28 144.476 296.172 137.368 308.271 133.129C320.381 137.359 331.284 144.464 340.044 153.835C348.804 163.206 355.159 174.562 358.565 186.929C358.997 188.527 359.055 190.204 358.733 191.828C358.412 193.452 357.72 194.981 356.711 196.294C355.702 197.607 354.404 198.67 352.918 199.399C351.431 200.129 349.797 200.505 348.141 200.5H268.456C266.8 200.506 265.165 200.129 263.679 199.4C262.192 198.67 260.894 197.608 259.885 196.295C258.876 194.981 258.184 193.453 257.862 191.829C257.541 190.204 257.599 188.527 258.031 186.929Z" fill="#EFAA65"/>
<path d="M240.178 209C238.949 208.997 237.734 208.732 236.614 208.225C235.494 207.717 234.495 206.978 233.682 206.055C232.869 205.133 232.262 204.049 231.899 202.874C231.536 201.699 231.427 200.461 231.578 199.241C236.275 159.661 269.15 129 309.007 129C348.864 129 381.739 159.661 386.432 199.241C386.583 200.461 386.474 201.699 386.111 202.874C385.749 204.049 385.141 205.133 384.328 206.056C383.515 206.978 382.516 207.718 381.396 208.225C380.276 208.733 379.061 208.997 377.832 209H240.178Z" stroke="#283035" stroke-width="6" stroke-linecap="round" stroke-linejoin="round"/>
<path d="M309.007 0V129" stroke="#283035" stroke-width="6" stroke-linejoin="round"/>
<path d="M114.7 435.853H452.478C457.017 435.853 461.369 437.656 464.579 440.865C467.788 444.074 469.591 448.427 469.591 452.966V675.853H97.5911V452.965C97.5913 448.427 99.3939 444.075 102.602 440.866C105.811 437.657 110.162 435.854 114.7 435.853Z" fill="#D2DCE6"/>
<path d="M114.7 435.853H452.478C457.017 435.853 461.369 437.656 464.579 440.865C467.788 444.074 469.591 448.427 469.591 452.966V675.853H97.5911V452.965C97.5913 448.427 99.3939 444.075 102.602 440.866C105.811 437.657 110.162 435.854 114.7 435.853V435.853Z" stroke="#283035" stroke-width="6" stroke-linecap="round" stroke-linejoin="round"/>
<path d="M441.591 648.136V464.136H125.591V648.136H441.591Z" fill="#FF5C5C"/>
<path opacity="0.3" d="M309.007 618.781H361.007" stroke="white" stroke-width="6" stroke-linecap="round" stroke-linejoin="round"/>
<g opacity="0.3">
<path opacity="0.3" d="M435.78 561.585C436.781 561.522 437.774 561.798 438.599 562.368C439.423 562.938 440.032 563.77 440.327 564.728V553.273C439.229 552.952 438.091 552.787 436.947 552.781H435.78C433.264 552.781 432.006 554.039 432.007 556.554V557.9C432.007 560.327 433.264 561.585 435.78 561.585Z" fill="white"/>
<path opacity="0.3" d="M440.327 616.494C440.027 617.448 439.416 618.273 438.592 618.839C437.767 619.404 436.778 619.677 435.78 619.614C433.264 619.614 432.006 620.872 432.007 623.386V624.734C432.007 627.249 433.265 628.507 435.78 628.507H436.947C438.091 628.502 439.229 628.336 440.327 628.015V616.494Z" fill="white"/>
</g>
<path d="M441.591 648.136V464.136H125.591V648.136H441.591Z" stroke="#283035" stroke-width="6" stroke-linecap="round" stroke-linejoin="round"/>
<path d="M56.543 676H510.643C511.704 676 512.721 676.421 513.471 677.172C514.222 677.922 514.643 678.939 514.643 680V684.791C514.643 690.095 512.536 695.182 508.785 698.933C505.034 702.684 499.947 704.791 494.643 704.791H72.543C67.2386 704.791 62.1516 702.684 58.4008 698.933C54.6501 695.182 52.543 690.095 52.543 684.791V680C52.543 678.939 52.9644 677.922 53.7145 677.172C54.4647 676.421 55.4821 676 56.543 676Z" fill="#E5E5E5"/>
<path d="M494.639 695.787H72.539C67.743 695.784 63.1081 694.056 59.4803 690.919C55.8525 687.782 53.4736 683.445 52.778 678.7C52.6273 679.117 52.5479 679.557 52.543 680V684.791C52.543 690.096 54.6501 695.183 58.4008 698.933C62.1516 702.684 67.2386 704.791 72.543 704.791H494.643C499.947 704.791 505.034 702.684 508.785 698.933C512.536 695.183 514.643 690.096 514.643 684.791V680C514.638 679.557 514.559 679.117 514.408 678.7C513.712 683.447 511.332 687.785 507.703 690.922C504.073 694.059 499.436 695.786 494.639 695.787Z" fill="#CFD1D0"/>
<path d="M56.543 676H510.643C511.704 676 512.721 676.421 513.471 677.172C514.222 677.922 514.643 678.939 514.643 680V684.791C514.643 690.095 512.536 695.182 508.785 698.933C505.034 702.684 499.947 704.791 494.643 704.791H72.543C67.2386 704.791 62.1516 702.684 58.4008 698.933C54.6501 695.182 52.543 690.095 52.543 684.791V680C52.543 678.939 52.9644 677.922 53.7145 677.172C54.4647 676.421 55.4821 676 56.543 676Z" stroke="#283035" stroke-width="6" stroke-linecap="round" stroke-linejoin="round"/>
<path d="M241.591 675.854H325.591C325.591 677.975 324.748 680.01 323.248 681.51C321.748 683.011 319.713 683.854 317.591 683.854H249.591C247.469 683.854 245.434 683.011 243.934 681.51C242.434 680.01 241.591 677.975 241.591 675.854Z" fill="#686B6D"/>
<path d="M241.591 675.854H325.591C325.591 677.975 324.748 680.01 323.248 681.51C321.748 683.011 319.713 683.854 317.591 683.854H249.591C247.469 683.854 245.434 683.011 243.934 681.51C242.434 680.01 241.591 677.975 241.591 675.854Z" stroke="#283035" stroke-width="4" stroke-linecap="round" stroke-linejoin="round"/>
<path d="M282.804 457.619C287.222 457.619 290.804 454.037 290.804 449.619C290.804 445.201 287.222 441.619 282.804 441.619C278.386 441.619 274.804 445.201 274.804 449.619C274.804 454.037 278.386 457.619 282.804 457.619Z" fill="#686B6D"/>
<path d="M282.804 457.619C287.222 457.619 290.804 454.037 290.804 449.619C290.804 445.201 287.222 441.619 282.804 441.619C278.386 441.619 274.804 445.201 274.804 449.619C274.804 454.037 278.386 457.619 282.804 457.619Z" stroke="#283035" stroke-width="4" stroke-linecap="round" stroke-linejoin="round"/>
<g style="mix-blend-mode:multiply" opacity="0.14">
<path d="M330.999 499.781H179.015C174.592 499.781 171.007 503.367 171.007 507.789V625.773C171.007 630.196 174.592 633.781 179.015 633.781H330.999C335.422 633.781 339.007 630.196 339.007 625.773V507.789C339.007 503.367 335.422 499.781 330.999 499.781Z" fill="black"/>
</g>
<path d="M323.166 492.781H171.182C166.759 492.781 163.174 496.367 163.174 500.789V618.773C163.174 623.196 166.759 626.781 171.182 626.781H323.166C327.589 626.781 331.174 623.196 331.174 618.773V500.789C331.174 496.367 327.589 492.781 323.166 492.781Z" fill="#353F49"/>
<path d="M323.166 492.781H171.182C166.759 492.781 163.174 496.367 163.174 500.789V618.773C163.174 623.196 166.759 626.781 171.182 626.781H323.166C327.589 626.781 331.174 623.196 331.174 618.773V500.789C331.174 496.367 327.589 492.781 323.166 492.781Z" stroke="#283035" stroke-width="4" stroke-linecap="round" stroke-linejoin="round"/>
<path d="M171.181 492.781H323.166C325.29 492.781 327.327 493.625 328.829 495.127C330.33 496.629 331.174 498.665 331.174 500.789V512.781H163.174V500.789C163.174 498.666 164.018 496.629 165.519 495.127C167.021 493.625 169.057 492.782 171.181 492.781Z" fill="#EAEEEF"/>
<path d="M171.181 492.781H323.166C325.29 492.781 327.327 493.625 328.829 495.127C330.33 496.629 331.174 498.665 331.174 500.789V512.781H163.174V500.789C163.174 498.666 164.018 496.629 165.519 495.127C167.021 493.625 169.057 492.782 171.181 492.781Z" stroke="#283035" stroke-width="4" stroke-linecap="round" stroke-linejoin="round"/>
<path opacity="0.35" d="M177.507 505.906C179.233 505.906 180.632 504.507 180.632 502.781C180.632 501.055 179.233 499.656 177.507 499.656C175.781 499.656 174.382 501.055 174.382 502.781C174.382 504.507 175.781 505.906 177.507 505.906Z" fill="#283035"/>
<path opacity="0.35" d="M187.34 505.906C189.066 505.906 190.465 504.507 190.465 502.781C190.465 501.055 189.066 499.656 187.34 499.656C185.614 499.656 184.215 501.055 184.215 502.781C184.215 504.507 185.614 505.906 187.34 505.906Z" fill="#283035"/>
<path opacity="0.35" d="M196.674 505.906C198.4 505.906 199.799 504.507 199.799 502.781C199.799 501.055 198.4 499.656 196.674 499.656C194.948 499.656 193.549 501.055 193.549 502.781C193.549 504.507 194.948 505.906 196.674 505.906Z" fill="#283035"/>
<path d="M171.007 519.781H182.007" stroke="#46BB86" stroke-width="3" stroke-miterlimit="10"/>
<path d="M186.007 519.781H216.007" stroke="#46BB86" stroke-width="3" stroke-miterlimit="10"/>
<path d="M171.007 527.781H216.007" stroke="#389ABE" stroke-width="3" stroke-miterlimit="10"/>
<path d="M180.007 535.781H202.007" stroke="#E5C689" stroke-width="3" stroke-miterlimit="10"/>
<path d="M206.007 535.781H230.007" stroke="#F2F3F4" stroke-width="3" stroke-miterlimit="10"/>
<path d="M192.007 543.781H238.007" stroke="#F2F3F4" stroke-width="3" stroke-miterlimit="10"/>
<path d="M192.007 551.781H226.007" stroke="#FFA49F" stroke-width="3" stroke-miterlimit="10"/>
<path d="M180.007 559.781H230.007" stroke="#F2F3F4" stroke-width="3" stroke-miterlimit="10"/>
<path d="M171.007 566.781H198.007" stroke="#389ABE" stroke-width="3" stroke-miterlimit="10"/>
<g opacity="0.3">
<path opacity="0.3" d="M403.643 605.522C403.643 601.57 402.115 598.786 399.061 597.079C396.905 595.911 396.007 595.012 396.007 592.947V589.447C396.007 587.022 397.085 586.483 398.971 585.225C402.115 583.878 403.643 581.004 403.643 576.692V569.056C403.643 562.948 405.888 558.456 409.122 556.57C411.541 554.845 414.417 553.876 417.386 553.785H418.554C421.069 553.785 422.326 555.043 422.327 557.558V558.9C422.327 561.325 421.069 562.583 418.554 562.583C415.054 562.583 413.344 565.098 413.344 570.218V579.65C413.433 581.94 412.862 584.207 411.7 586.182C410.538 588.157 408.832 589.756 406.787 590.789L405.978 591.058V591.238C406.9 591.51 407.756 591.969 408.493 592.586C410.739 593.932 413.344 597.077 413.344 602.556V613.066C413.344 618.096 415.051 620.612 418.554 620.612C421.069 620.612 422.326 621.869 422.327 624.384V625.732C422.327 628.247 421.069 629.505 418.554 629.505H417.386C414.417 629.415 411.541 628.445 409.122 626.72C405.888 624.834 403.643 620.253 403.643 614.234V605.522Z" fill="white"/>
</g>
<defs>
<linearGradient id="paint0_linear" x1="309.007" y1="194.725" x2="309.007" y2="719.205" gradientUnits="userSpaceOnUse">
<stop stop-color="white"/>
<stop offset="0.093" stop-color="white" stop-opacity="0.864"/>
<stop offset="0.284" stop-color="white" stop-opacity="0.605"/>
<stop offset="0.466" stop-color="white" stop-opacity="0.389"/>
<stop offset="0.633" stop-color="white" stop-opacity="0.221"/>
<stop offset="0.784" stop-color="white" stop-opacity="0.1"/>
<stop offset="0.911" stop-color="white" stop-opacity="0.026"/>
<stop offset="1" stop-color="white" stop-opacity="0"/>
</linearGradient>
</defs>
</svg>
