<svg width="686" height="623" viewBox="0 0 686 623" fill="none" xmlns="http://www.w3.org/2000/svg">
<path d="M8 589.617C269.268 623.437 415.752 621.222 677.021 589.617C671.868 381.25 97.884 337.383 8 589.617Z" fill="black" stroke="black" stroke-width="16" stroke-linejoin="bevel"/>
<path d="M216.35 34.0988L246.099 96.3022H210.089H190.848L202.547 111.578L228.005 144.821L166.164 148.869L127.439 126.901L120.816 123.144L115.707 128.791L47.3952 204.293L41.9293 210.335L47.0667 216.658L91.6795 271.566V560.855V569.158L99.9082 570.27C302.239 597.593 411.917 598.761 595.276 568.793L603.244 567.49V559.417V272.128L647.201 228.171L653.027 222.344L648.084 215.753L583.367 129.464L577.769 122L570.205 127.463L510.029 170.924L455.014 145.034L440.177 133.024L439.865 132.771L439.532 132.545L426.969 124.025C398.789 99.5542 373.673 80.3971 343.138 64.0367C312.478 47.6094 276.724 34.1975 227.405 20.8308L207.412 15.4123L216.35 34.0988Z" fill="white" stroke="black" stroke-width="19"/>
<path d="M550.6 210.667L564.981 235.834L550.6 192.69L527.752 169.842L511.051 181.904L550.6 210.667Z" fill="#9A855C" fill-opacity="0.04"/>
<path d="M144.324 207.072L142.111 210.943L129.942 232.239L133.238 222.352L239.751 150.295L146.313 205.542L144.324 207.072Z" fill="#9A855C" fill-opacity="0.04"/>
<path fill-rule="evenodd" clip-rule="evenodd" d="M511.051 181.904L527.752 169.842L550.6 192.69L564.981 235.834L550.6 210.667L511.051 181.904ZM239.751 150.295L146.313 205.542L142.111 210.943L129.942 232.239L133.238 222.352L239.751 150.295Z" fill="#9A855C" fill-opacity="0.04"/>
<path d="M147.919 257.407C206.599 207.969 223.166 186.003 324.092 171.118C425.018 156.233 467.404 173.973 532.623 228.644C566.918 320.28 573.073 372.96 557.791 469.533L532.623 491.105V512.677L557.791 545.036L532.623 568.765C532.623 568.765 575.212 562.088 593.744 559.417V545.036V268.193L640.484 221.453L575.767 135.164L527.752 169.842L550.6 192.69L564.981 235.834L550.6 210.667L511.051 181.904L449.93 153.141L435.848 140.408L421.167 131.569C343.928 67.2753 301.551 49.5703 226.568 30L261.173 105.802H211.737L239.751 150.295L146.313 205.542L142.111 210.943L129.942 232.239L133.238 222.352L239.751 150.295L165.896 156.886L122.752 135.164L54.4398 210.667L101.18 268.193V545.036V559.417L165.896 567.327L144.324 545.036L165.896 512.677V491.105L133.238 469.533C121.775 382.032 118.453 333.815 147.919 257.407Z" fill="#9A855C" fill-opacity="0.04"/>
<path d="M471.535 470.864L484.026 408.412L480.43 426.389L451.907 451.556L471.535 470.864Z" fill="black"/>
<path d="M191.363 422.075L205.984 465.938L213.175 487.51L227.317 470.864L191.363 422.075Z" fill="black"/>
<path d="M191.363 422.075L231.631 542.879L453.105 563.013L493.374 361.672L191.363 422.075ZM191.363 422.075L227.317 470.864L213.175 487.51L205.984 465.938L191.363 422.075ZM471.535 470.864L484.026 408.412L480.43 426.389L451.907 451.556L471.535 470.864Z" stroke="black" stroke-width="14"/>
<path d="M378.47 332.013L290.146 348.686L296.346 362.151L323.745 371.615L355.541 365.612L377.604 346.812L378.47 332.013Z" fill="black"/>
<path d="M290.146 348.686L288.847 341.808L283.787 351.614L290.146 348.686ZM378.47 332.013L385.458 332.422L377.171 325.135L378.47 332.013ZM355.541 365.612L356.84 372.491L358.666 372.146L360.081 370.94L355.541 365.612ZM323.745 371.615L321.459 378.231L323.216 378.838L325.043 378.493L323.745 371.615ZM377.604 346.812L382.144 352.14L384.418 350.203L384.592 347.221L377.604 346.812ZM296.346 362.151L289.988 365.079L291.237 367.792L294.061 368.768L296.346 362.151ZM291.444 355.565L379.768 338.892L377.171 325.135L288.847 341.808L291.444 355.565ZM354.243 358.734L322.446 364.736L325.043 378.493L356.84 372.491L354.243 358.734ZM371.482 331.605L370.616 346.403L384.592 347.221L385.458 332.422L371.482 331.605ZM373.064 341.484L351.001 360.284L360.081 370.94L382.144 352.14L373.064 341.484ZM326.03 364.998L298.631 355.535L294.061 368.768L321.459 378.231L326.03 364.998ZM302.704 359.223L296.504 345.758L283.787 351.614L289.988 365.079L302.704 359.223Z" fill="black"/>
<rect x="205.744" y="275.384" width="21.5722" height="43.1443" fill="#0B0B0B"/>
<rect x="457.419" y="275.384" width="21.5722" height="43.1443" fill="#0B0B0B"/>
</svg>
