<svg width="1000" height="1000" viewBox="0 0 1000 1000" fill="none" xmlns="http://www.w3.org/2000/svg">
<path d="M554.546 653.239L344.666 518.466C339.782 515.33 338.673 508.269 342.201 502.775L461.036 317.714C464.565 312.22 471.447 310.29 476.33 313.426L686.211 448.198C691.094 451.334 692.203 458.396 688.675 463.89L569.76 649.076C566.231 654.57 559.429 656.375 554.546 653.239Z" fill="#2D425E"/>
<path d="M679.534 478.125L451.895 331.95L461.117 317.589C464.645 312.095 471.527 310.165 476.411 313.301L686.291 448.074C691.174 451.21 692.283 458.271 688.755 463.765L679.534 478.125Z" stroke="#1F3969" stroke-width="4" stroke-miterlimit="10" stroke-linecap="round" stroke-linejoin="round"/>
<path d="M676.487 482.871L448.848 336.695L461.117 317.589C464.645 312.095 471.527 310.165 476.411 313.301L686.291 448.074C691.174 451.21 692.283 458.271 688.755 463.765L676.487 482.871Z" fill="#D0DDF0"/>
<path d="M676.487 482.871L448.848 336.695L461.117 317.589C464.645 312.095 471.527 310.165 476.411 313.301L686.291 448.074C691.174 451.21 692.283 458.271 688.755 463.765L676.487 482.871Z" stroke="#1F3969" stroke-width="4" stroke-miterlimit="10" stroke-linecap="round" stroke-linejoin="round"/>
<path d="M676.487 482.871L448.848 336.695L461.117 317.589C464.645 312.095 471.527 310.165 476.411 313.301L686.291 448.074C691.174 451.21 692.283 458.271 688.755 463.765L676.487 482.871Z" stroke="#1F3969" stroke-width="4" stroke-miterlimit="10" stroke-linecap="round" stroke-linejoin="round"/>
<path d="M554.546 653.239L344.666 518.466C339.782 515.33 338.673 508.269 342.201 502.775L461.036 317.714C464.565 312.22 471.447 310.29 476.33 313.426L686.211 448.198C691.094 451.334 692.203 458.396 688.675 463.89L569.76 649.076C566.231 654.57 559.429 656.375 554.546 653.239Z" stroke="#1F3969" stroke-width="4" stroke-miterlimit="10" stroke-linecap="round" stroke-linejoin="round"/>
<path d="M477.251 341.53C479.703 343.104 483.127 342.144 484.898 339.386C486.67 336.627 486.118 333.115 483.666 331.54C481.214 329.966 477.79 330.926 476.019 333.684C474.248 336.443 474.799 339.955 477.251 341.53Z" fill="#1F3969"/>
<path d="M492.679 351.436C495.13 353.011 498.554 352.051 500.326 349.292C502.097 346.534 501.545 343.021 499.093 341.447C496.642 339.872 493.218 340.832 491.446 343.591C489.675 346.349 490.227 349.862 492.679 351.436Z" fill="#1F3969"/>
<path d="M508.106 361.343C510.558 362.917 513.982 361.958 515.753 359.199C517.525 356.44 516.973 352.928 514.521 351.353C512.069 349.779 508.645 350.739 506.874 353.497C505.103 356.256 505.654 359.769 508.106 361.343Z" fill="#1F3969"/>
<path d="M564.759 443.753L579.188 453.018" stroke="white" stroke-width="4" stroke-miterlimit="10" stroke-linecap="round" stroke-linejoin="round"/>
<path d="M491.617 396.785L554.104 436.911" stroke="#7BFFA0" stroke-width="4" stroke-miterlimit="10" stroke-linecap="round" stroke-linejoin="round"/>
<path d="M460.762 376.972L482.738 391.084" stroke="#9169FF" stroke-width="4" stroke-miterlimit="10" stroke-linecap="round" stroke-linejoin="round"/>
<path d="M410.415 518.359L458.14 549.006" stroke="#9169FF" stroke-width="4" stroke-miterlimit="10" stroke-linecap="round" stroke-linejoin="round"/>
<path d="M381.779 499.972L397.207 509.878" stroke="#7BFFA0" stroke-width="4" stroke-miterlimit="10" stroke-linecap="round" stroke-linejoin="round"/>
<path d="M544.241 452.27L553.231 458.043" stroke="white" stroke-width="4" stroke-miterlimit="10" stroke-linecap="round" stroke-linejoin="round"/>
<path d="M503.397 426.043L533.586 445.428" stroke="#9169FF" stroke-width="4" stroke-miterlimit="10" stroke-linecap="round" stroke-linejoin="round"/>
<path d="M461.887 399.387L492.631 419.129" stroke="#FFC47D" stroke-width="4" stroke-miterlimit="10" stroke-linecap="round" stroke-linejoin="round"/>
<path d="M499.639 445.322L526.165 462.356" stroke="white" stroke-width="4" stroke-miterlimit="10" stroke-linecap="round" stroke-linejoin="round"/>
<path d="M466.342 423.941L491.315 439.977" stroke="#FF5757" stroke-width="4" stroke-miterlimit="10" stroke-linecap="round" stroke-linejoin="round"/>
<path d="M493.328 462.962L498.766 466.454" stroke="white" stroke-width="4" stroke-miterlimit="10" stroke-linecap="round" stroke-linejoin="round"/>
<path d="M471.352 448.85L483.671 456.761" stroke="#9169FF" stroke-width="4" stroke-miterlimit="10" stroke-linecap="round" stroke-linejoin="round"/>
<path d="M442.162 430.106L462.029 442.863" stroke="#7BFFA0" stroke-width="4" stroke-miterlimit="10" stroke-linecap="round" stroke-linejoin="round"/>
<path d="M474.838 472.958L510.244 495.693" stroke="#FFC47D" stroke-width="4" stroke-miterlimit="10" stroke-linecap="round" stroke-linejoin="round"/>
<path d="M432.219 445.59L463.961 465.974" stroke="#FF5757" stroke-width="4" stroke-miterlimit="10" stroke-linecap="round" stroke-linejoin="round"/>
<path d="M505.93 514.616L525.132 526.946" stroke="#9169FF" stroke-width="4" stroke-miterlimit="10" stroke-linecap="round" stroke-linejoin="round"/>
<path d="M464.976 488.317L495.719 508.059" stroke="#FF5757" stroke-width="4" stroke-miterlimit="10" stroke-linecap="round" stroke-linejoin="round"/>
<path d="M436.673 470.143L454.099 481.333" stroke="#7BFFA0" stroke-width="4" stroke-miterlimit="10" stroke-linecap="round" stroke-linejoin="round"/>
<path d="M469.097 512.657L485.857 523.419" stroke="white" stroke-width="4" stroke-miterlimit="10" stroke-linecap="round" stroke-linejoin="round"/>
<path d="M426.81 485.503L457.554 505.245" stroke="#9169FF" stroke-width="4" stroke-miterlimit="10" stroke-linecap="round" stroke-linejoin="round"/>
<path d="M502.853 556.026L522.054 568.355" stroke="white" stroke-width="4" stroke-miterlimit="10" stroke-linecap="round" stroke-linejoin="round"/>
<path d="M444.14 518.323L492.42 549.326" stroke="#FFC47D" stroke-width="4" stroke-miterlimit="10" stroke-linecap="round" stroke-linejoin="round"/>
<path d="M402.63 491.668L433.374 511.41" stroke="white" stroke-width="4" stroke-miterlimit="10" stroke-linecap="round" stroke-linejoin="round"/>
<path d="M794.7 750.9H799.5" stroke="#43293A" stroke-width="10" stroke-miterlimit="10" stroke-linecap="round" stroke-linejoin="round"/>
<path d="M241 750.9H740" stroke="#43293A" stroke-width="10" stroke-miterlimit="10" stroke-linecap="round" stroke-linejoin="round"/>
<path d="M195.5 750.9H219" stroke="#43293A" stroke-width="10" stroke-miterlimit="10" stroke-linecap="round" stroke-linejoin="round"/>
<path d="M302 556.7H283.1L261.7 697.7C261.7 697.7 276.8 690.6 281.9 690.6C298.1 690.6 302.1 697.7 302.1 697.7V556.7H302Z" fill="#FF8345"/>
<path d="M302 556.7H283.1L261.7 697.7C261.7 697.7 276.8 690.6 281.9 690.6C298.1 690.6 302.1 697.7 302.1 697.7V556.7H302Z" stroke="#43293A" stroke-width="10" stroke-miterlimit="10" stroke-linecap="round" stroke-linejoin="round"/>
<path d="M302 556.7H283.1L261.7 697.7C261.7 697.7 276.8 690.6 281.9 690.6C298.1 690.6 302.1 697.7 302.1 697.7V556.7H302Z" stroke="#43293A" stroke-width="10" stroke-miterlimit="10" stroke-linecap="round" stroke-linejoin="round"/>
<path d="M299.3 556.7H283.2L261.8 697.7C261.8 697.7 272.6 692.7 279 691.1L299.3 556.7Z" fill="#AD5349"/>
<path d="M299.3 556.7H283.2L261.8 697.7C261.8 697.7 272.6 692.7 279 691.1L299.3 556.7Z" stroke="#43293A" stroke-width="10" stroke-miterlimit="10" stroke-linecap="round" stroke-linejoin="round"/>
<path d="M698 556.7H716.9L738.3 697.7C738.3 697.7 723.2 690.6 718.1 690.6C701.9 690.6 697.9 697.7 697.9 697.7V556.7H698Z" fill="#FF8345"/>
<path d="M698 556.7H716.9L738.3 697.7C738.3 697.7 723.2 690.6 718.1 690.6C701.9 690.6 697.9 697.7 697.9 697.7V556.7H698Z" stroke="#43293A" stroke-width="10" stroke-miterlimit="10" stroke-linecap="round" stroke-linejoin="round"/>
<path d="M698 556.7H716.9L738.3 697.7C738.3 697.7 723.2 690.6 718.1 690.6C701.9 690.6 697.9 697.7 697.9 697.7V556.7H698Z" stroke="#43293A" stroke-width="10" stroke-miterlimit="10" stroke-linecap="round" stroke-linejoin="round"/>
<path d="M700.7 556.7H716.8L738.2 697.7C738.2 697.7 727.4 692.7 721 691.1L700.7 556.7Z" fill="#AD5349"/>
<path d="M700.7 556.7H716.8L738.2 697.7C738.2 697.7 727.4 692.7 721 691.1L700.7 556.7Z" stroke="#43293A" stroke-width="10" stroke-miterlimit="10" stroke-linecap="round" stroke-linejoin="round"/>
<path d="M675.8 750.3H323.8C310.5 750.3 299.8 739.6 299.8 726.3V476.3H699.8V726.3C699.8 739.6 689.1 750.3 675.8 750.3Z" fill="#AD5349"/>
<path opacity="0.48" d="M556 685H444C435.2 685 428 677.8 428 669V628.3H572V669C572 677.9 564.8 685 556 685Z" fill="#AD5349" stroke="#AD5349" stroke-width="10" stroke-miterlimit="10"/>
<path d="M511.9 678.7C511.9 685.3 506.6 690.6 500 690.6C493.4 690.6 488.1 685.3 488.1 678.7H479.1C479.1 690.2 488.5 699.6 500 699.6C511.5 699.6 520.9 690.2 520.9 678.7H511.9Z" fill="white"/>
<path d="M511.9 678.7C511.9 685.3 506.6 690.6 500 690.6C493.4 690.6 488.1 685.3 488.1 678.7H479.1C479.1 690.2 488.5 699.6 500 699.6C511.5 699.6 520.9 690.2 520.9 678.7H511.9Z" stroke="#43293A" stroke-width="4" stroke-miterlimit="10" stroke-linecap="round" stroke-linejoin="round"/>
<path opacity="0.48" d="M676 739H324C310.7 739 300 728.3 300 715V726.8C300 740.1 310.7 750.8 324 750.8H676C689.3 750.8 700 740.1 700 726.8V715C700 728.3 689.3 739 676 739Z" fill="#AD5349"/>
<path d="M700 589.9V480.8H300V589.9C305.4 592.5 311.2 594.4 317.4 595.7C369.5 606.2 426.5 611.1 496.8 611.1H503.2C573.5 611.1 630.5 606.2 682.6 595.7C688.8 594.4 694.6 592.5 700 589.9Z" fill="#933B34"/>
<path d="M556 678H444C435.2 678 428 670.8 428 662V621.3H572V662C572 670.9 564.8 678 556 678Z" fill="#FF8345"/>
<path opacity="0.45" d="M428 643.5C433.5 648.7 440.9 651.9 449 651.9H551C559.1 651.9 566.5 648.7 572 643.5V625.3H428V643.5Z" fill="#FF8345"/>
<path d="M451.7 667H444C440.7 667 438 664.3 438 661V630.3" stroke="#43293A" stroke-width="3" stroke-miterlimit="10" stroke-linecap="round" stroke-linejoin="round" stroke-dasharray="5 5"/>
<path d="M562 650.9V661C562 664.3 559.3 667 556 667H462" stroke="#43293A" stroke-width="3" stroke-miterlimit="10" stroke-linecap="round" stroke-linejoin="round" stroke-dasharray="5 5"/>
<path d="M556 678H444C435.2 678 428 670.8 428 662V621.3H572V662C572 670.9 564.8 678 556 678Z" stroke="#43293A" stroke-width="10" stroke-miterlimit="10" stroke-linecap="round" stroke-linejoin="round"/>
<path d="M551 641.9H449C435.5 641.9 424.5 630.9 424.5 617.4V593H575.5V617.5C575.5 631 564.5 641.9 551 641.9Z" fill="#EDAB7A"/>
<path opacity="0.84" d="M424.5 609C447.1 610.3 471 611 496.8 611H503.2C528.9 611 552.9 610.3 575.5 609V593H424.5V609Z" fill="#EDAB7A"/>
<path d="M551 641.9H449C435.5 641.9 424.5 630.9 424.5 617.4V593H575.5V617.5C575.5 631 564.5 641.9 551 641.9Z" stroke="#43293A" stroke-width="10" stroke-miterlimit="10" stroke-linecap="round" stroke-linejoin="round"/>
<path d="M434.5 616.3V597.5H565.5V616.3C565.5 624.3 559 630.8 551 630.8H449C441 630.8 434.5 624.3 434.5 616.3Z" stroke="#43293A" stroke-width="3" stroke-miterlimit="10" stroke-linecap="round" stroke-linejoin="round" stroke-dasharray="5 5"/>
<path d="M676 750.8H324C310.7 750.8 300 740.1 300 726.8V476.8H700V726.8C700 740.1 689.3 750.8 676 750.8Z" stroke="#43293A" stroke-width="10" stroke-miterlimit="10" stroke-linecap="round" stroke-linejoin="round"/>
<path d="M324 734.8C319.6 734.8 316 731.2 316 726.8V492.8H684V726.8C684 731.2 680.4 734.8 676 734.8H324Z" stroke="#43293A" stroke-width="4" stroke-miterlimit="10" stroke-linecap="round" stroke-linejoin="round" stroke-dasharray="7 7"/>
<path d="M385.5 765.2C375.6 765.2 367.5 757.1 367.5 747.2V494.3H403.5V747.2C403.5 757.1 395.5 765.2 385.5 765.2Z" fill="#EDAB7A"/>
<path d="M403.5 494.3H367.5V507.3H403.5V494.3Z" fill="#43293A"/>
<path opacity="0.78" d="M403.5 564.2H367.5V582.2H403.5V564.2Z" fill="#EDAB7A"/>
<path d="M385.5 765.2C375.6 765.2 367.5 757.1 367.5 747.2V494.3H403.5V747.2C403.5 757.1 395.5 765.2 385.5 765.2Z" stroke="#43293A" stroke-width="10" stroke-miterlimit="10" stroke-linecap="round" stroke-linejoin="round"/>
<path d="M355.5 552.2V607.2H367.5V595.2V590.3V564.2H403.5V590.3V595.2V607.2H415.5V552.2H355.5Z" fill="white"/>
<path d="M405.8 552.2H365.4C360 552.2 355.6 556.6 355.6 562V597.4C355.6 602.8 360 607.2 365.4 607.2H367.6V595.2V582.2V564.2H403.6V582.2V595.2V607.2H405.8C411.2 607.2 415.6 602.8 415.6 597.4V562C415.5 556.6 411.2 552.2 405.8 552.2Z" stroke="#43293A" stroke-width="8" stroke-miterlimit="10" stroke-linecap="round" stroke-linejoin="round"/>
<path d="M385.5 538.2C388.538 538.2 391 535.738 391 532.7C391 529.663 388.538 527.2 385.5 527.2C382.462 527.2 380 529.663 380 532.7C380 535.738 382.462 538.2 385.5 538.2Z" fill="white"/>
<path d="M385.5 538.2C388.538 538.2 391 535.738 391 532.7C391 529.663 388.538 527.2 385.5 527.2C382.462 527.2 380 529.663 380 532.7C380 535.738 382.462 538.2 385.5 538.2Z" stroke="#43293A" stroke-width="4" stroke-miterlimit="10" stroke-linecap="round" stroke-linejoin="round"/>
<path d="M385.5 592C388.538 592 391 589.538 391 586.5C391 583.463 388.538 581 385.5 581C382.462 581 380 583.463 380 586.5C380 589.538 382.462 592 385.5 592Z" fill="white"/>
<path d="M385.5 593.5C388.538 593.5 391 591.038 391 588C391 584.963 388.538 582.5 385.5 582.5C382.462 582.5 380 584.963 380 588C380 591.038 382.462 593.5 385.5 593.5Z" stroke="#43293A" stroke-width="4" stroke-miterlimit="10" stroke-linecap="round" stroke-linejoin="round"/>
<path d="M385.5 664.7C388.538 664.7 391 662.238 391 659.2C391 656.163 388.538 653.7 385.5 653.7C382.462 653.7 380 656.163 380 659.2C380 662.238 382.462 664.7 385.5 664.7Z" fill="#AD5349"/>
<path d="M385.5 664.7C388.538 664.7 391 662.238 391 659.2C391 656.163 388.538 653.7 385.5 653.7C382.462 653.7 380 656.163 380 659.2C380 662.238 382.462 664.7 385.5 664.7Z" stroke="#43293A" stroke-width="4" stroke-miterlimit="10" stroke-linecap="round" stroke-linejoin="round"/>
<path d="M385.5 700.3C388.538 700.3 391 697.838 391 694.8C391 691.763 388.538 689.3 385.5 689.3C382.462 689.3 380 691.763 380 694.8C380 697.838 382.462 700.3 385.5 700.3Z" fill="#AD5349"/>
<path d="M385.5 700.3C388.538 700.3 391 697.838 391 694.8C391 691.763 388.538 689.3 385.5 689.3C382.462 689.3 380 691.763 380 694.8C380 697.838 382.462 700.3 385.5 700.3Z" stroke="#43293A" stroke-width="4" stroke-miterlimit="10" stroke-linecap="round" stroke-linejoin="round"/>
<path d="M385.5 592C383.3 592 381.5 590.2 381.5 588V556.1C381.5 553.9 383.3 552.1 385.5 552.1C387.7 552.1 389.5 553.9 389.5 556.1V588C389.5 590.3 387.8 592 385.5 592Z" fill="white"/>
<path d="M385.5 592C383.3 592 381.5 590.2 381.5 588V556.1C381.5 553.9 383.3 552.1 385.5 552.1C387.7 552.1 389.5 553.9 389.5 556.1V588C389.5 590.3 387.8 592 385.5 592Z" stroke="#43293A" stroke-width="4" stroke-miterlimit="10" stroke-linecap="round" stroke-linejoin="round"/>
<path d="M614.5 765.2C604.6 765.2 596.5 757.1 596.5 747.2V494.3H632.5V747.2C632.5 757.1 624.4 765.2 614.5 765.2Z" fill="#EDAB7A"/>
<path opacity="0.78" d="M631.3 564.5H595.3V582.5H631.3V564.5Z" fill="#EDAB7A"/>
<path d="M614.5 765.2C604.6 765.2 596.5 757.1 596.5 747.2V494.3H632.5V747.2C632.5 757.1 624.4 765.2 614.5 765.2Z" stroke="#43293A" stroke-width="10" stroke-miterlimit="10" stroke-linecap="round" stroke-linejoin="round"/>
<path d="M584.5 552.2V607.2H596.5V595.2V590.3V564.2H632.5V590.3V595.2V607.2H644.5V552.2H584.5Z" fill="white"/>
<path d="M634.7 552.2H594.3C588.9 552.2 584.5 556.6 584.5 562V597.4C584.5 602.8 588.9 607.2 594.3 607.2H596.5V595.2V582.2V564.2H632.5V582.2V595.2V607.2H634.7C640.1 607.2 644.5 602.8 644.5 597.4V562C644.5 556.6 640.1 552.2 634.7 552.2Z" stroke="#43293A" stroke-width="8" stroke-miterlimit="10" stroke-linecap="round" stroke-linejoin="round"/>
<path d="M614.5 538.2C617.538 538.2 620 535.738 620 532.7C620 529.663 617.538 527.2 614.5 527.2C611.462 527.2 609 529.663 609 532.7C609 535.738 611.462 538.2 614.5 538.2Z" fill="white"/>
<path d="M614.5 538.2C617.538 538.2 620 535.738 620 532.7C620 529.663 617.538 527.2 614.5 527.2C611.462 527.2 609 529.663 609 532.7C609 535.738 611.462 538.2 614.5 538.2Z" stroke="#43293A" stroke-width="4" stroke-miterlimit="10" stroke-linecap="round" stroke-linejoin="round"/>
<path d="M614.5 592C617.538 592 620 589.538 620 586.5C620 583.463 617.538 581 614.5 581C611.462 581 609 583.463 609 586.5C609 589.538 611.462 592 614.5 592Z" fill="white"/>
<path d="M614.5 593.5C617.538 593.5 620 591.038 620 588C620 584.963 617.538 582.5 614.5 582.5C611.462 582.5 609 584.963 609 588C609 591.038 611.462 593.5 614.5 593.5Z" stroke="#43293A" stroke-width="4" stroke-miterlimit="10" stroke-linecap="round" stroke-linejoin="round"/>
<path d="M614.5 664.7C617.538 664.7 620 662.238 620 659.2C620 656.163 617.538 653.7 614.5 653.7C611.462 653.7 609 656.163 609 659.2C609 662.238 611.462 664.7 614.5 664.7Z" fill="#AD5349"/>
<path d="M614.5 664.7C617.538 664.7 620 662.238 620 659.2C620 656.163 617.538 653.7 614.5 653.7C611.462 653.7 609 656.163 609 659.2C609 662.238 611.462 664.7 614.5 664.7Z" stroke="#43293A" stroke-width="4" stroke-miterlimit="10" stroke-linecap="round" stroke-linejoin="round"/>
<path d="M614.5 700.3C617.538 700.3 620 697.838 620 694.8C620 691.763 617.538 689.3 614.5 689.3C611.462 689.3 609 691.763 609 694.8C609 697.838 611.462 700.3 614.5 700.3Z" fill="#AD5349"/>
<path d="M614.5 700.3C617.538 700.3 620 697.838 620 694.8C620 691.763 617.538 689.3 614.5 689.3C611.462 689.3 609 691.763 609 694.8C609 697.838 611.462 700.3 614.5 700.3Z" stroke="#43293A" stroke-width="4" stroke-miterlimit="10" stroke-linecap="round" stroke-linejoin="round"/>
<path d="M614.5 592C612.3 592 610.5 590.2 610.5 588V556.1C610.5 553.9 612.3 552.1 614.5 552.1C616.7 552.1 618.5 553.9 618.5 556.1V588C618.4 590.3 616.7 592 614.5 592Z" fill="white"/>
<path d="M614.5 592C612.3 592 610.5 590.2 610.5 588V556.1C610.5 553.9 612.3 552.1 614.5 552.1C616.7 552.1 618.5 553.9 618.5 556.1V588C618.4 590.3 616.7 592 614.5 592Z" stroke="#43293A" stroke-width="4" stroke-miterlimit="10" stroke-linecap="round" stroke-linejoin="round"/>
<path d="M632.5 494.3H596.5V507.3H632.5V494.3Z" fill="#43293A"/>
<path opacity="0.84" d="M502.5 622.5C505.648 622.5 508.2 619.948 508.2 616.8C508.2 613.652 505.648 611.1 502.5 611.1C499.352 611.1 496.8 613.652 496.8 616.8C496.8 619.948 499.352 622.5 502.5 622.5Z" fill="#EDAB7A"/>
<path d="M502.5 622.5C505.648 622.5 508.2 619.948 508.2 616.8C508.2 613.652 505.648 611.1 502.5 611.1C499.352 611.1 496.8 613.652 496.8 616.8C496.8 619.948 499.352 622.5 502.5 622.5Z" stroke="#43293A" stroke-width="4" stroke-miterlimit="10" stroke-linecap="round" stroke-linejoin="round"/>
<path d="M527 511.2C527.2 508.6 525.7 506.1 523.3 505C517 502.1 509.9 500.5 502.5 500.5C495.1 500.5 488 502.1 481.7 505C479.3 506.1 477.8 508.6 478 511.2C479.2 526.4 487.1 539.7 498.8 548C501 549.6 503.9 549.6 506.1 548C517.9 539.7 525.8 526.4 527 511.2Z" fill="#F7CFB5"/>
<path opacity="0.75" d="M506.2 537C504 538.6 501.1 538.6 498.9 537C489 530 481.9 519.4 479.2 507.2C478.4 508.3 478 509.7 478.1 511.2C479.3 526.4 487.2 539.7 498.9 548C501.1 549.6 504 549.6 506.2 548C517.9 539.6 525.9 526.4 527 511.2C527.1 509.8 526.7 508.4 525.9 507.2C523.2 519.5 516 530 506.2 537Z" fill="#F7CFB5"/>
<path d="M527 511.2C527.2 508.6 525.7 506.1 523.3 505C517 502.1 509.9 500.5 502.5 500.5C495.1 500.5 488 502.1 481.7 505C479.3 506.1 477.8 508.6 478 511.2C479.2 526.4 487.1 539.7 498.8 548C501 549.6 503.9 549.6 506.1 548C517.9 539.7 525.8 526.4 527 511.2Z" stroke="#43293A" stroke-width="5" stroke-miterlimit="10" stroke-linecap="round" stroke-linejoin="round"/>
<path d="M491.6 509.9C495.1 508.9 498.8 508.5 502.5 508.5C506.2 508.5 509.9 509 513.4 509.9C516.7 510.8 518.7 514.2 517.9 517.5C516.9 521.4 515.4 525.1 513.4 528.6" stroke="#43293A" stroke-width="3" stroke-miterlimit="10" stroke-linecap="round" stroke-linejoin="round"/>
<path opacity="0.5" d="M345.841 292.318H371.264L397.787 310V292.318H416.569C418.914 292.318 421.162 291.387 422.821 289.729C424.479 288.071 425.41 285.822 425.41 283.477V234.841C425.41 232.496 424.479 230.247 422.821 228.589C421.162 226.931 418.914 226 416.569 226H345.841C343.496 226 341.248 226.931 339.589 228.589C337.931 230.247 337 232.496 337 234.841V283.474C337 284.635 337.228 285.785 337.672 286.858C338.116 287.931 338.767 288.906 339.588 289.727C340.409 290.549 341.384 291.2 342.457 291.645C343.53 292.089 344.68 292.318 345.841 292.318Z" fill="white"/>
<path opacity="0.39" d="M478.606 254.62C484.813 254.62 489.844 249.589 489.844 243.382C489.844 237.175 484.813 232.143 478.606 232.143C472.399 232.143 467.367 237.175 467.367 243.382C467.367 249.589 472.399 254.62 478.606 254.62Z" fill="white"/>
<path d="M345.841 292.318H371.264L397.787 310V292.318H416.569C418.914 292.318 421.162 291.387 422.821 289.729C424.479 288.071 425.41 285.822 425.41 283.477V234.841C425.41 232.496 424.479 230.247 422.821 228.589C421.162 226.931 418.914 226 416.569 226H345.841C343.496 226 341.248 226.931 339.589 228.589C337.931 230.247 337 232.496 337 234.841V283.474C337 284.635 337.228 285.785 337.672 286.858C338.116 287.931 338.767 288.906 339.588 289.727C340.409 290.549 341.384 291.2 342.457 291.645C343.53 292.089 344.68 292.318 345.841 292.318V292.318Z" stroke="#1E223B" stroke-width="2" stroke-linecap="round" stroke-linejoin="round"/>
<path d="M359.047 251.623H399.506" stroke="#1E223B" stroke-width="3" stroke-linecap="round" stroke-linejoin="round"/>
<path d="M359.047 262.113H384.521" stroke="#1E223B" stroke-width="3" stroke-linecap="round" stroke-linejoin="round"/>
<path d="M478.606 254.62C484.813 254.62 489.844 249.589 489.844 243.382C489.844 237.175 484.813 232.143 478.606 232.143C472.399 232.143 467.367 237.175 467.367 243.382C467.367 249.589 472.399 254.62 478.606 254.62Z" stroke="#1E223B" stroke-width="2" stroke-linecap="round" stroke-linejoin="round"/>
<path opacity="0.39" d="M197.548 401.096C226.017 401.096 249.096 378.017 249.096 349.548C249.096 321.079 226.017 298 197.548 298C169.079 298 146 321.079 146 349.548C146 378.017 169.079 401.096 197.548 401.096Z" fill="white"/>
<path d="M170.494 334.899L198.341 318.716L224.687 333.927L196.84 350.109L170.494 334.899Z" stroke="#1E223B" stroke-width="2" stroke-linecap="round" stroke-linejoin="round"/>
<path d="M170.494 334.899L198.341 318.716L224.687 333.927L196.84 350.109L170.494 334.899Z" fill="#028B9E" stroke="#1E223B" stroke-width="2" stroke-linecap="round" stroke-linejoin="round"/>
<path d="M197.548 401.096C226.017 401.096 249.096 378.017 249.096 349.548C249.096 321.079 226.017 298 197.548 298C169.079 298 146 321.079 146 349.548C146 378.017 169.079 401.096 197.548 401.096Z" stroke="#1E223B" stroke-width="2" stroke-linecap="round" stroke-linejoin="round"/>
<path d="M249 350H260.506C268.531 350 276.227 353.166 281.902 358.802C287.577 364.438 290.765 372.081 290.765 380.051V380.051C290.765 383.997 291.547 387.905 293.068 391.551C294.589 395.197 296.818 398.509 299.628 401.3C302.438 404.09 305.774 406.304 309.445 407.814C313.116 409.324 317.051 410.101 321.025 410.101H337.741C345.766 410.101 353.463 413.267 359.137 418.903C364.812 424.539 368 432.182 368 440.152V462" stroke="#1E223B" stroke-width="2" stroke-linecap="round" stroke-linejoin="round" stroke-dasharray="6 8"/>
<path d="M196.84 350.109L224.687 333.927L224.601 364.2L196.754 380.383L196.84 350.109Z" stroke="#1E223B" stroke-width="2" stroke-linecap="round" stroke-linejoin="round"/>
<path d="M196.84 350.108L196.754 380.382L170.408 365.171L170.494 334.898L196.84 350.108Z" stroke="#1E223B" stroke-width="2" stroke-linecap="round" stroke-linejoin="round"/>
<path opacity="0.4" d="M196.84 350.108L196.754 380.382L170.408 365.171L170.494 334.898L196.84 350.108Z" fill="#028B9E" stroke="#1E223B" stroke-width="2" stroke-linecap="round" stroke-linejoin="round"/>
<path d="M842.368 557.022L814.311 540.716L814.397 571.219L842.455 587.524L842.368 557.022Z" fill="#777BB4"/>
<path d="M842.368 557.022L814.311 540.716L814.397 571.219L842.455 587.524L842.368 557.022Z" stroke="#1E223B" stroke-width="2" stroke-linecap="round" stroke-linejoin="round"/>
<path opacity="0.88" d="M868.913 541.696L840.856 525.39L814.311 540.716L842.368 557.022L868.913 541.696Z" fill="#FF5855" stroke="#1E223B" stroke-miterlimit="10"/>
<path d="M842.368 557.021L842.455 587.523L869 572.197L868.913 541.695L842.368 557.021Z" fill="#0270BB"/>
<path d="M842.368 557.021L842.455 587.523L869 572.197L868.913 541.695L842.368 557.021Z" stroke="#1E223B" stroke-width="2" stroke-linecap="round" stroke-linejoin="round"/>
<path opacity="0.59" d="M862.955 514C859.641 514 856.955 511.314 856.955 508C856.955 504.686 859.641 502 862.955 502C866.269 502 868.955 504.686 868.955 508C868.955 511.314 866.269 514 862.955 514Z" fill="white"/>
<path d="M862.955 514C859.641 514 856.955 511.314 856.955 508C856.955 504.686 859.641 502 862.955 502C866.269 502 868.955 504.686 868.955 508C868.955 511.314 866.269 514 862.955 514Z" stroke="#1E223B" stroke-width="2" stroke-linecap="round" stroke-linejoin="round"/>
<path opacity="0.59" d="M842.455 514C839.141 514 836.455 511.314 836.455 508C836.455 504.686 839.141 502 842.455 502C845.769 502 848.455 504.686 848.455 508C848.455 511.314 845.769 514 842.455 514Z" fill="white"/>
<path d="M842.455 514C839.141 514 836.455 511.314 836.455 508C836.455 504.686 839.141 502 842.455 502C845.769 502 848.455 504.686 848.455 508C848.455 511.314 845.769 514 842.455 514Z" stroke="#1E223B" stroke-width="2" stroke-linecap="round" stroke-linejoin="round"/>
<path opacity="0.59" d="M821.955 514C818.641 514 815.955 511.314 815.955 508C815.955 504.686 818.641 502 821.955 502C825.269 502 827.955 504.686 827.955 508C827.955 511.314 825.269 514 821.955 514Z" fill="white"/>
<path d="M821.955 514C818.641 514 815.955 511.314 815.955 508C815.955 504.686 818.641 502 821.955 502C825.269 502 827.955 504.686 827.955 508C827.955 511.314 825.269 514 821.955 514Z" stroke="#1E223B" stroke-width="2" stroke-linecap="round" stroke-linejoin="round"/>
<path d="M814.363 558.989H788.113C776.148 558.989 764.674 554.236 756.213 545.776C747.753 537.315 743 525.841 743 513.876V494.882C743 482.979 738.272 471.563 729.855 463.146C721.438 454.729 710.022 450 698.119 450H684" stroke="#1E223B" stroke-width="2" stroke-linecap="round" stroke-linejoin="round"/>
<path d="M868.913 541.696L840.856 525.39L814.311 540.716L842.368 557.022L868.913 541.696Z" stroke="#1E223B" stroke-width="2" stroke-linecap="round" stroke-linejoin="round"/>
<path d="M639.174 411.767C701.881 324.454 702.404 281.832 631.376 218.964" stroke="black" stroke-dasharray="12 12"/>
<circle cx="603.103" cy="193.241" r="36" transform="rotate(-51.9402 603.103 193.241)" stroke="black"/>
<circle r="8" transform="matrix(-0.616484 0.787367 0.787367 0.616484 603.89 193.857)" stroke="black"/>
<path d="M601.242 169.819L600.098 177.905L600.119 177.907C599.445 178.036 598.78 178.207 598.128 178.419L598.144 178.408L593.236 171.881C592.846 171.361 592.265 171.018 591.622 170.927C590.978 170.836 590.325 171.004 589.806 171.394L585.237 174.83C584.718 175.22 584.376 175.801 584.285 176.444C584.193 177.087 584.362 177.74 584.752 178.26L589.66 184.786L589.667 184.777C589.286 185.339 588.94 185.925 588.632 186.53L588.633 186.52L580.548 185.375C580.23 185.329 579.906 185.347 579.594 185.427C579.282 185.508 578.99 185.648 578.732 185.842C578.475 186.035 578.259 186.277 578.095 186.554C577.932 186.831 577.824 187.138 577.779 187.456L576.979 193.117C576.934 193.435 576.952 193.759 577.032 194.071C577.112 194.382 577.253 194.675 577.446 194.932C577.64 195.19 577.882 195.406 578.159 195.57C578.436 195.733 578.742 195.841 579.061 195.886L587.146 197.031L587.147 197.021C587.276 197.689 587.445 198.348 587.656 198.994L587.649 198.985L581.122 203.892C580.603 204.282 580.26 204.863 580.169 205.506C580.078 206.15 580.247 206.803 580.637 207.322L584.072 211.891C584.463 212.41 585.044 212.753 585.687 212.844C586.33 212.935 586.983 212.767 587.503 212.376L594.029 207.469L594.017 207.454C594.584 207.839 595.175 208.187 595.786 208.498L595.766 208.495L594.621 216.58C594.53 217.223 594.698 217.876 595.089 218.395C595.479 218.915 596.06 219.258 596.703 219.349L602.364 220.149C602.682 220.194 603.006 220.177 603.318 220.096C603.63 220.016 603.922 219.875 604.18 219.682C604.437 219.489 604.653 219.247 604.817 218.97C604.98 218.693 605.088 218.386 605.133 218.068L606.277 209.983L606.247 209.979C606.928 209.849 607.6 209.675 608.26 209.459L608.232 209.48L613.139 216.006C613.529 216.526 614.11 216.869 614.754 216.96C615.397 217.051 616.05 216.883 616.569 216.492L621.138 213.057C621.657 212.667 622 212.086 622.091 211.443C622.182 210.8 622.014 210.147 621.623 209.627L616.715 203.101L616.681 203.127C617.075 202.549 617.431 201.946 617.747 201.322L617.741 201.364L625.826 202.508C626.145 202.554 626.469 202.536 626.781 202.456C627.092 202.375 627.385 202.235 627.642 202.041C627.899 201.848 628.116 201.606 628.28 201.329C628.443 201.052 628.551 200.745 628.596 200.427L629.395 194.766C629.487 194.123 629.318 193.47 628.928 192.951C628.538 192.432 627.957 192.089 627.314 191.997L619.229 190.852L619.223 190.893C619.093 190.206 618.918 189.528 618.7 188.864L618.726 188.898L625.252 183.992C625.509 183.798 625.726 183.556 625.889 183.279C626.053 183.002 626.16 182.695 626.205 182.377C626.25 182.058 626.232 181.734 626.152 181.422C626.072 181.111 625.931 180.818 625.737 180.561L622.302 175.993C622.109 175.736 621.867 175.519 621.59 175.355C621.313 175.192 621.006 175.084 620.688 175.039C620.369 174.994 620.045 175.012 619.733 175.092C619.422 175.173 619.129 175.313 618.872 175.507L612.345 180.42L612.366 180.448C611.793 180.057 611.195 179.704 610.576 179.389L610.608 179.394L611.753 171.309C611.844 170.666 611.675 170.013 611.285 169.493C610.895 168.974 610.314 168.631 609.671 168.54L604.01 167.74C603.367 167.649 602.715 167.817 602.196 168.207C601.677 168.597 601.334 169.177 601.242 169.819Z" stroke="#1E223B" stroke-linecap="round" stroke-linejoin="round"/>
<path opacity="0.5" d="M351.841 294.318H377.264L403.787 312V294.318H422.569C424.914 294.318 427.162 293.387 428.821 291.729C430.479 290.071 431.41 287.822 431.41 285.477V236.841C431.41 234.496 430.479 232.248 428.821 230.59C427.162 228.932 424.914 228 422.569 228H351.841C349.496 228 347.248 228.932 345.589 230.59C343.931 232.248 343 234.496 343 236.841V285.474C343 286.635 343.228 287.785 343.672 288.858C344.116 289.931 344.767 290.906 345.588 291.728C346.409 292.549 347.384 293.2 348.457 293.645C349.53 294.089 350.68 294.318 351.841 294.318Z" fill="white"/>
<path opacity="0.39" d="M484.606 256.62C490.813 256.62 495.844 251.589 495.844 245.382C495.844 239.175 490.813 234.143 484.606 234.143C478.399 234.143 473.367 239.175 473.367 245.382C473.367 251.589 478.399 256.62 484.606 256.62Z" fill="white"/>
<path d="M351.841 294.318H377.264L403.787 312V294.318H422.569C424.914 294.318 427.162 293.387 428.821 291.729C430.479 290.071 431.41 287.822 431.41 285.477V236.841C431.41 234.496 430.479 232.248 428.821 230.59C427.162 228.932 424.914 228 422.569 228H351.841C349.496 228 347.248 228.932 345.589 230.59C343.931 232.248 343 234.496 343 236.841V285.474C343 286.635 343.228 287.785 343.672 288.858C344.116 289.931 344.767 290.906 345.588 291.728C346.409 292.549 347.384 293.2 348.457 293.645C349.53 294.089 350.68 294.318 351.841 294.318V294.318Z" stroke="#1E223B" stroke-width="2" stroke-linecap="round" stroke-linejoin="round"/>
<path d="M365.047 253.623H405.506" stroke="#1E223B" stroke-width="3" stroke-linecap="round" stroke-linejoin="round"/>
<path d="M365.047 264.113H390.521" stroke="#1E223B" stroke-width="3" stroke-linecap="round" stroke-linejoin="round"/>
<path d="M484.606 256.62C490.813 256.62 495.844 251.589 495.844 245.382C495.844 239.175 490.813 234.143 484.606 234.143C478.399 234.143 473.367 239.175 473.367 245.382C473.367 251.589 478.399 256.62 484.606 256.62Z" stroke="#1E223B" stroke-width="2" stroke-linecap="round" stroke-linejoin="round"/>
</svg>
