<svg width="1000" height="1000" viewBox="0 0 1000 1000" fill="none" xmlns="http://www.w3.org/2000/svg">
<path d="M574.98 535.667L415.861 433.491C412.158 431.113 411.074 426.139 413.452 422.436L493.529 297.733C495.906 294.031 500.881 292.947 504.583 295.324L663.702 397.501C667.404 399.878 668.488 404.852 666.111 408.555L585.98 533.342C583.602 537.045 578.682 538.045 574.98 535.667Z" fill="#2D425E"/>
<path d="M659.951 418.147L487.369 307.326L493.583 297.649C495.96 293.946 500.935 292.862 504.637 295.24L663.756 397.416C667.458 399.794 668.542 404.768 666.165 408.471L659.951 418.147Z" stroke="#1F3969" stroke-width="4" stroke-miterlimit="10" stroke-linecap="round" stroke-linejoin="round"/>
<path d="M657.898 421.345L485.316 310.523L493.583 297.649C495.96 293.946 500.935 292.862 504.637 295.24L663.756 397.416C667.458 399.794 668.542 404.768 666.165 408.471L657.898 421.345Z" fill="#D0DDF0"/>
<path d="M657.898 421.345L485.316 310.523L493.583 297.649C495.96 293.946 500.935 292.862 504.637 295.24L663.756 397.416C667.458 399.794 668.542 404.768 666.165 408.471L657.898 421.345Z" stroke="#1F3969" stroke-width="4" stroke-miterlimit="10" stroke-linecap="round" stroke-linejoin="round"/>
<path d="M657.898 421.345L485.316 310.523L493.583 297.649C495.96 293.946 500.935 292.862 504.637 295.24L663.756 397.416C667.458 399.794 668.542 404.768 666.165 408.471L657.898 421.345Z" stroke="#1F3969" stroke-width="4" stroke-miterlimit="10" stroke-linecap="round" stroke-linejoin="round"/>
<path d="M574.98 535.667L415.861 433.491C412.158 431.113 411.074 426.139 413.452 422.436L493.529 297.733C495.906 294.031 500.881 292.947 504.583 295.324L663.702 397.501C667.404 399.878 668.488 404.852 666.111 408.555L585.98 533.342C583.602 537.045 578.682 538.045 574.98 535.667Z" stroke="#1F3969" stroke-width="4" stroke-miterlimit="10" stroke-linecap="round" stroke-linejoin="round"/>
<path d="M506.336 314.989C508.195 316.182 510.669 315.643 511.863 313.784C513.057 311.925 512.517 309.451 510.658 308.257C508.8 307.063 506.325 307.603 505.131 309.462C503.938 311.32 504.477 313.795 506.336 314.989Z" fill="#1F3969"/>
<path d="M518.032 322.499C519.891 323.693 522.365 323.154 523.559 321.295C524.753 319.436 524.213 316.961 522.354 315.768C520.496 314.574 518.021 315.113 516.827 316.972C515.634 318.831 516.173 321.306 518.032 322.499Z" fill="#1F3969"/>
<path d="M529.728 330.01C531.587 331.204 534.062 330.664 535.255 328.805C536.449 326.946 535.91 324.472 534.051 323.278C532.192 322.085 529.717 322.624 528.524 324.483C527.33 326.342 527.869 328.816 529.728 330.01Z" fill="#1F3969"/>
<path d="M574.443 389.741L585.382 396.765" stroke="white" stroke-width="4" stroke-miterlimit="10" stroke-linecap="round" stroke-linejoin="round"/>
<path d="M518.991 354.133L566.365 384.554" stroke="#7BFFA0" stroke-width="4" stroke-miterlimit="10" stroke-linecap="round" stroke-linejoin="round"/>
<path d="M495.599 339.112L512.26 349.81" stroke="#9169FF" stroke-width="4" stroke-miterlimit="10" stroke-linecap="round" stroke-linejoin="round"/>
<path d="M464.086 435.936L500.268 459.17" stroke="#9169FF" stroke-width="4" stroke-miterlimit="10" stroke-linecap="round" stroke-linejoin="round"/>
<path d="M442.376 421.995L454.073 429.506" stroke="#7BFFA0" stroke-width="4" stroke-miterlimit="10" stroke-linecap="round" stroke-linejoin="round"/>
<path d="M559.719 394.904L566.535 399.28" stroke="white" stroke-width="4" stroke-miterlimit="10" stroke-linecap="round" stroke-linejoin="round"/>
<path d="M528.754 375.019L551.641 389.716" stroke="#9169FF" stroke-width="4" stroke-miterlimit="10" stroke-linecap="round" stroke-linejoin="round"/>
<path d="M497.283 354.811L520.591 369.778" stroke="#FFC47D" stroke-width="4" stroke-miterlimit="10" stroke-linecap="round" stroke-linejoin="round"/>
<path d="M526.735 388.341L546.846 401.255" stroke="white" stroke-width="4" stroke-miterlimit="10" stroke-linecap="round" stroke-linejoin="round"/>
<path d="M501.492 372.131L520.425 384.289" stroke="#FF5757" stroke-width="4" stroke-miterlimit="10" stroke-linecap="round" stroke-linejoin="round"/>
<path d="M522.782 400.42L526.905 403.068" stroke="white" stroke-width="4" stroke-miterlimit="10" stroke-linecap="round" stroke-linejoin="round"/>
<path d="M506.121 389.721L515.461 395.719" stroke="#9169FF" stroke-width="4" stroke-miterlimit="10" stroke-linecap="round" stroke-linejoin="round"/>
<path d="M483.991 375.511L499.053 385.183" stroke="#7BFFA0" stroke-width="4" stroke-miterlimit="10" stroke-linecap="round" stroke-linejoin="round"/>
<path d="M509.603 406.693L536.445 423.93" stroke="#FFC47D" stroke-width="4" stroke-miterlimit="10" stroke-linecap="round" stroke-linejoin="round"/>
<path d="M477.291 385.945L501.356 401.398" stroke="#FF5757" stroke-width="4" stroke-miterlimit="10" stroke-linecap="round" stroke-linejoin="round"/>
<path d="M534.006 436.982L548.563 446.329" stroke="#9169FF" stroke-width="4" stroke-miterlimit="10" stroke-linecap="round" stroke-linejoin="round"/>
<path d="M502.957 417.043L526.265 432.011" stroke="#FF5757" stroke-width="4" stroke-miterlimit="10" stroke-linecap="round" stroke-linejoin="round"/>
<path d="M481.5 403.265L494.71 411.748" stroke="#7BFFA0" stroke-width="4" stroke-miterlimit="10" stroke-linecap="round" stroke-linejoin="round"/>
<path d="M506.913 434.201L519.619 442.36" stroke="white" stroke-width="4" stroke-miterlimit="10" stroke-linecap="round" stroke-linejoin="round"/>
<path d="M474.854 413.615L498.162 428.582" stroke="#9169FF" stroke-width="4" stroke-miterlimit="10" stroke-linecap="round" stroke-linejoin="round"/>
<path d="M533.336 465.786L547.893 475.134" stroke="white" stroke-width="4" stroke-miterlimit="10" stroke-linecap="round" stroke-linejoin="round"/>
<path d="M488.823 437.203L525.426 460.707" stroke="#FFC47D" stroke-width="4" stroke-miterlimit="10" stroke-linecap="round" stroke-linejoin="round"/>
<path d="M457.353 416.994L480.661 431.962" stroke="white" stroke-width="4" stroke-miterlimit="10" stroke-linecap="round" stroke-linejoin="round"/>
<path opacity="0.39" d="M228.548 354.096C257.017 354.096 280.096 331.017 280.096 302.548C280.096 274.079 257.017 251 228.548 251C200.079 251 177 274.079 177 302.548C177 331.017 200.079 354.096 228.548 354.096Z" fill="white"/>
<path d="M201.494 287.899L229.341 271.716L255.687 286.927L227.84 303.109L201.494 287.899Z" stroke="#1E223B" stroke-width="2" stroke-linecap="round" stroke-linejoin="round"/>
<path d="M201.494 287.899L229.341 271.716L255.687 286.927L227.84 303.109L201.494 287.899Z" fill="#028B9E" stroke="#1E223B" stroke-width="2" stroke-linecap="round" stroke-linejoin="round"/>
<path d="M228.548 354.096C257.017 354.096 280.096 331.017 280.096 302.548C280.096 274.079 257.017 251 228.548 251C200.079 251 177 274.079 177 302.548C177 331.017 200.079 354.096 228.548 354.096Z" stroke="#1E223B" stroke-width="2" stroke-linecap="round" stroke-linejoin="round"/>
<path d="M280 303H291.506C299.531 303 307.227 306.166 312.902 311.802C318.577 317.438 321.765 325.081 321.765 333.051V333.051C321.765 336.997 322.547 340.905 324.068 344.551C325.589 348.197 327.818 351.509 330.628 354.3C333.438 357.09 336.774 359.304 340.445 360.814C344.116 362.324 348.051 363.101 352.025 363.101H368.741C376.766 363.101 384.463 366.267 390.137 371.903C395.812 377.539 399 385.182 399 393.152V415" stroke="#1E223B" stroke-width="2" stroke-linecap="round" stroke-linejoin="round" stroke-dasharray="6 8"/>
<path d="M227.84 303.109L255.687 286.927L255.601 317.2L227.754 333.383L227.84 303.109Z" stroke="#1E223B" stroke-width="2" stroke-linecap="round" stroke-linejoin="round"/>
<path d="M227.84 303.108L227.754 333.382L201.408 318.171L201.494 287.898L227.84 303.108Z" stroke="#1E223B" stroke-width="2" stroke-linecap="round" stroke-linejoin="round"/>
<path opacity="0.4" d="M227.84 303.108L227.754 333.382L201.408 318.171L201.494 287.898L227.84 303.108Z" fill="#028B9E" stroke="#1E223B" stroke-width="2" stroke-linecap="round" stroke-linejoin="round"/>
<path d="M405.685 299.294L411.885 312.26H405.014H398.938L402.632 317.084L407.478 323.411L395.208 324.214L386.608 319.336L384.517 318.149L382.904 319.932L367.349 337.124L365.623 339.032L367.246 341.028L377.216 353.3V418.872V421.974L380.317 421.87C420.906 420.512 444.905 420.86 478.7 421.351C483.061 421.414 487.585 421.48 492.329 421.544L495.37 421.586V418.545V353.477L505.133 343.714L506.973 341.874L505.412 339.793L490.677 320.145L488.909 317.788L486.52 319.513L473.218 329.12L461.23 323.478L457.93 320.807L457.832 320.727L457.726 320.656L454.907 318.744C448.482 313.167 442.72 308.771 435.704 305.012C428.648 301.232 420.442 298.158 409.176 295.104L402.862 293.393L405.685 299.294Z" fill="white" stroke="black" stroke-width="6"/>
<path d="M482.546 339.137L485.821 344.867L482.546 335.043L477.344 329.841L473.541 332.587L482.546 339.137Z" fill="#9A855C" fill-opacity="0.04"/>
<path d="M390.04 338.318L389.536 339.2L386.765 344.048L387.516 341.797L411.768 325.39L390.493 337.97L390.04 338.318Z" fill="#9A855C" fill-opacity="0.04"/>
<path fill-rule="evenodd" clip-rule="evenodd" d="M473.541 332.587L477.344 329.841L482.546 335.043L485.821 344.867L482.546 339.137L473.541 332.587ZM411.768 325.39L390.493 337.97L389.536 339.2L386.765 344.048L387.516 341.797L411.768 325.39Z" fill="#9A855C" fill-opacity="0.04"/>
<path d="M390.859 349.779C404.22 338.522 407.992 333.521 430.972 330.132C453.952 326.742 463.603 330.782 478.453 343.23C486.262 364.095 487.663 376.09 484.183 398.079L478.453 402.99V407.902L484.183 415.27L478.453 420.673C478.453 420.673 488.15 419.153 492.37 418.545V415.27V352.235L503.012 341.593L488.277 321.945L477.344 329.841L482.546 335.043L485.821 344.867L482.546 339.137L473.541 332.587L459.624 326.038L456.418 323.139L453.075 321.127C435.488 306.487 425.839 302.456 408.766 298L416.646 315.26H405.389L411.768 325.39L390.493 337.97L389.536 339.2L386.765 344.048L387.516 341.797L411.768 325.39L394.952 326.891L385.128 321.945L369.574 339.137L380.216 352.235V415.27V418.545L394.952 420.346L390.04 415.27L394.952 407.902V402.99L387.516 398.079C384.906 378.155 384.149 367.176 390.859 349.779Z" fill="#9A855C" fill-opacity="0.04"/>
<path d="M470.583 342.327L473.858 348.057L470.583 338.234L464.034 331.684L459.941 334.14L470.583 342.327Z" fill="black" stroke="black"/>
<path d="M398.164 344.532L394.89 350.262L398.164 340.439L404.713 333.89L408.806 336.345L398.164 344.532Z" fill="black" stroke="black"/>
<path d="M464.544 395.988L467.388 381.768L466.569 385.861L460.074 391.592L464.544 395.988Z" fill="black"/>
<path d="M400.75 384.879L404.08 394.866L405.717 399.778L408.937 395.988L400.75 384.879Z" fill="black"/>
<path d="M400.75 384.879L409.919 412.385L460.347 416.97L469.516 371.126L400.75 384.879ZM400.75 384.879L408.937 395.988L405.717 399.778L404.08 394.866L400.75 384.879ZM464.544 395.988L467.388 381.768L466.569 385.861L460.074 391.592L464.544 395.988Z" stroke="black" stroke-width="3"/>
<path d="M443.353 364.372L423.242 368.169L424.654 371.235L430.893 373.389L438.133 372.023L443.156 367.742L443.353 364.372Z" fill="black"/>
<path d="M423.242 368.169L422.964 366.695L421.88 368.796L423.242 368.169ZM443.353 364.372L444.851 364.46L443.075 362.898L443.353 364.372ZM438.133 372.023L438.411 373.497L438.802 373.423L439.105 373.164L438.133 372.023ZM430.893 373.389L430.403 374.807L430.78 374.937L431.171 374.863L430.893 373.389ZM443.156 367.742L444.129 368.884L444.616 368.469L444.654 367.83L443.156 367.742ZM424.654 371.235L423.292 371.862L423.56 372.443L424.165 372.652L424.654 371.235ZM423.521 369.643L443.631 365.846L443.075 362.898L422.964 366.695L423.521 369.643ZM437.854 370.549L430.614 371.915L431.171 374.863L438.411 373.497L437.854 370.549ZM441.856 364.285L441.659 367.654L444.654 367.83L444.851 364.46L441.856 364.285ZM442.183 366.6L437.16 370.881L439.105 373.164L444.129 368.884L442.183 366.6ZM431.382 371.972L425.144 369.817L424.165 372.652L430.403 374.807L431.382 371.972ZM426.017 370.607L424.605 367.541L421.88 368.796L423.292 371.862L426.017 370.607Z" fill="black"/>
<rect x="404.025" y="351.48" width="4.91183" height="9.82366" fill="#0B0B0B"/>
<rect x="461.33" y="351.478" width="4.91183" height="9.82366" fill="#0B0B0B"/>
<path d="M822.4 748H829.8" stroke="#013711" stroke-width="10" stroke-miterlimit="10" stroke-linecap="round" stroke-linejoin="round"/>
<path d="M741.8 748H786.8" stroke="#013711" stroke-width="10" stroke-miterlimit="10" stroke-linecap="round" stroke-linejoin="round"/>
<path d="M298.5 748H722" stroke="#013711" stroke-width="10" stroke-miterlimit="10" stroke-linecap="round" stroke-linejoin="round"/>
<path d="M218.6 748H275.5" stroke="#013711" stroke-width="10" stroke-miterlimit="10" stroke-linecap="round" stroke-linejoin="round"/>
<path d="M614.5 748H396.1C372.1 748 352.1 729.7 349.9 705.8C342.5 625.9 342.5 545.4 349.9 465.5C352.1 441.6 372.1 423.3 396.1 423.3H614.5C638.5 423.3 658.5 441.6 660.7 465.5C668.1 545.4 668.1 625.9 660.7 705.8C658.4 729.7 638.5 748 614.5 748Z" fill="#049448"/>
<path opacity="0.29" d="M660.7 691.9C658.5 715.8 638.5 734.1 614.5 734.1H396.1C372.1 734.1 352.1 715.8 349.9 691.9C346.4 654.2 344.6 616.5 344.4 578.7C344.2 621.1 346 663.5 349.9 705.8C352.1 729.7 372.1 748 396.1 748H614.5C638.5 748 658.5 729.7 660.7 705.8C664.6 663.5 666.5 621.1 666.2 578.7C666 616.4 664.2 654.2 660.7 691.9Z" fill="#0B7C3E"/>
<path opacity="0.5" d="M505.3 671.3C523.36 671.3 538 662.301 538 651.2C538 640.099 523.36 631.1 505.3 631.1C487.24 631.1 472.6 640.099 472.6 651.2C472.6 662.301 487.24 671.3 505.3 671.3Z" stroke="#049448" stroke-width="8" stroke-miterlimit="10"/>
<path opacity="0.5" d="M378.7 589.6C420.7 591.8 463.2 592.9 505.3 592.9C547.3 592.9 589.9 591.8 631.9 589.6C644.8 588.9 656.6 584 666.3 576C665.9 540.1 664.1 504.3 660.8 468.5C658.6 444.6 638.6 426.3 614.6 426.3H396.1C372.1 426.3 352.1 444.6 349.9 468.5C346.6 504.3 344.7 540.1 344.4 576C354 584 365.8 588.9 378.7 589.6Z" fill="#049448"/>
<path d="M396.1 734.1C379.2 734.1 365.3 721.4 363.7 704.5C356.4 625.6 356.4 545.6 363.7 466.8C365.3 449.9 379.2 437.2 396.1 437.2H614.5C631.4 437.2 645.3 449.9 646.9 466.8C654.2 545.7 654.2 625.7 646.9 704.5C645.3 721.4 631.4 734.1 614.5 734.1H396.1Z" stroke="#013711" stroke-width="4" stroke-linecap="round" stroke-linejoin="round" stroke-dasharray="4.01 4.01"/>
<path d="M614.5 748H396.1C372.1 748 352.1 729.7 349.9 705.8C342.5 625.9 342.5 545.4 349.9 465.5C352.1 441.6 372.1 423.3 396.1 423.3H614.5C638.5 423.3 658.5 441.6 660.7 465.5C668.1 545.4 668.1 625.9 660.7 705.8C658.4 729.7 638.5 748 614.5 748Z" stroke="#013711" stroke-miterlimit="10"/>
<path d="M614.5 748H396.1C372.1 748 352.1 729.7 349.9 705.8C342.5 625.9 342.5 545.4 349.9 465.5C352.1 441.6 372.1 423.3 396.1 423.3H614.5C638.5 423.3 658.5 441.6 660.7 465.5C668.1 545.4 668.1 625.9 660.7 705.8C658.4 729.7 638.5 748 614.5 748Z" stroke="#013711" stroke-width="10" stroke-miterlimit="10" stroke-linecap="round" stroke-linejoin="round"/>
<g opacity="0.41">
<path opacity="0.41" d="M442.2 568.6H395.1C393.3 568.6 391.6 567.6 390.7 566L376.1 538.8C366.3 520.7 370.1 499.5 385.8 484.8L406.8 465.2C413.2 459.2 424 459.3 430.4 465.2L451.4 484.9C467.1 499.6 470.9 520.7 461.1 538.8L446.6 566C445.7 567.6 444 568.6 442.2 568.6ZM398.1 558.6H439.2L452.4 534.1C460 520.2 456.9 503.8 444.6 492.3L423.6 472.6C421.1 470.3 416.2 470.2 413.7 472.6L392.7 492.2C380.4 503.7 377.3 520.2 384.9 534.1L398.1 558.6Z" fill="#013711"/>
</g>
<g opacity="0.41">
<path opacity="0.41" d="M418.2 693.7C407.8 693.7 399.3 685.2 399.3 674.8V513.6C399.3 510.8 401.5 508.6 404.3 508.6H432.1C434.9 508.6 437.1 510.8 437.1 513.6V674.8C437.1 685.2 428.6 693.7 418.2 693.7ZM409.3 518.6V674.8C409.3 679.7 413.3 683.7 418.2 683.7C423.1 683.7 427.1 679.7 427.1 674.8V518.6H409.3Z" fill="#013711"/>
</g>
<path d="M397.3 556.6H440.1L453.4 530.7C461.3 515.5 458.2 497.6 445.4 485.1L426.3 466.3C422.3 462.3 415.1 462.3 411.1 466.3L392 484.9C379.3 497.4 376.2 515.5 384 530.7L397.3 556.6Z" fill="#049448"/>
<path d="M395.1 556.6H442.2L456.8 529.4C465.5 513.5 462 494.7 448 481.6L427 461.9C422.6 457.7 414.7 457.7 410.3 461.9L389.3 481.5C375.3 494.6 371.9 513.5 380.5 529.5L395.1 556.6Z" stroke="#013711" stroke-width="10" stroke-miterlimit="10" stroke-linecap="round" stroke-linejoin="round"/>
<path d="M402.6 546.6H401.1L400.4 545.3" stroke="#013711" stroke-width="3" stroke-linecap="round" stroke-linejoin="round"/>
<path d="M397.1 539.1L389.4 524.7C382.9 512.8 385.6 498.7 396.2 488.8L417.2 469.2C417.4 469 417.9 468.8 418.7 468.8C419.5 468.8 420.1 469.1 420.3 469.2L441.3 488.9C452 498.9 454.6 512.6 448.1 524.7L438.7 542.2" stroke="#013711" stroke-width="3" stroke-linecap="round" stroke-linejoin="round" stroke-dasharray="2.99 2.99"/>
<path d="M436.9 545.3L436.2 546.6H434.7" stroke="#013711" stroke-width="3" stroke-linecap="round" stroke-linejoin="round"/>
<path d="M428.6 546.6H405.7" stroke="#013711" stroke-width="3" stroke-linecap="round" stroke-linejoin="round" stroke-dasharray="2.6 2.6"/>
<path d="M418.3 682.5C410.6 682.5 404.4 676.3 404.4 668.6V507.4H432.2V668.6C432.3 676.3 426 682.5 418.3 682.5Z" fill="#F9941C"/>
<path opacity="0.37" d="M418.3 673.2C410.6 673.2 404.4 667 404.4 659.3V668.6C404.4 676.3 410.6 682.5 418.3 682.5C426 682.5 432.2 676.3 432.2 668.6V659.3C432.3 667 426 673.2 418.3 673.2Z" fill="#F9941C"/>
<path opacity="0.37" d="M432.2 590.5H404.4V613H432.2V590.5Z" fill="#F9941C"/>
<path d="M418.3 682.5C410.6 682.5 404.4 676.3 404.4 668.6V507.4H432.2V668.6C432.3 676.3 426 682.5 418.3 682.5Z" stroke="#013711" stroke-width="8" stroke-miterlimit="10" stroke-linecap="round" stroke-linejoin="round"/>
<path d="M404.4 611V590.5H432.2V611H443.8V584.5C443.8 581.4 441.3 578.9 438.2 578.9H398.4C395.3 578.9 392.8 581.4 392.8 584.5V611H404.4Z" fill="white"/>
<path d="M404.4 611V590.5H432.2V611H443.8V588.2C443.8 583.1 439.7 579 434.6 579H402.1C397 579 392.9 583.1 392.9 588.2V611H404.4Z" stroke="#013711" stroke-width="8" stroke-miterlimit="10" stroke-linecap="round" stroke-linejoin="round"/>
<path d="M422.9 518.4L413.7 527.6" stroke="#013711" stroke-width="4" stroke-miterlimit="10" stroke-linecap="round" stroke-linejoin="round"/>
<path d="M422.9 527.6L413.7 518.4" stroke="#013711" stroke-width="4" stroke-miterlimit="10" stroke-linecap="round" stroke-linejoin="round"/>
<path d="M418.2 615C420.74 615 422.8 612.941 422.8 610.4C422.8 607.86 420.74 605.8 418.2 605.8C415.659 605.8 413.6 607.86 413.6 610.4C413.6 612.941 415.659 615 418.2 615Z" fill="white"/>
<path d="M418.2 613C420.74 613 422.8 610.941 422.8 608.4C422.8 605.86 420.74 603.8 418.2 603.8C415.659 603.8 413.6 605.86 413.6 608.4C413.6 610.941 415.659 613 418.2 613Z" stroke="#013711" stroke-width="4" stroke-miterlimit="10" stroke-linecap="round" stroke-linejoin="round"/>
<path d="M418.2 631C420.74 631 422.8 628.941 422.8 626.4C422.8 623.86 420.74 621.8 418.2 621.8C415.659 621.8 413.6 623.86 413.6 626.4C413.6 628.941 415.659 631 418.2 631Z" fill="white"/>
<path d="M418.2 631C420.74 631 422.8 628.941 422.8 626.4C422.8 623.86 420.74 621.8 418.2 621.8C415.659 621.8 413.6 623.86 413.6 626.4C413.6 628.941 415.659 631 418.2 631Z" stroke="#013711" stroke-width="4" stroke-miterlimit="10" stroke-linecap="round" stroke-linejoin="round"/>
<path d="M418.2 651.3C420.74 651.3 422.8 649.241 422.8 646.7C422.8 644.16 420.74 642.1 418.2 642.1C415.659 642.1 413.6 644.16 413.6 646.7C413.6 649.241 415.659 651.3 418.2 651.3Z" fill="white"/>
<path d="M418.2 651.3C420.74 651.3 422.8 649.241 422.8 646.7C422.8 644.16 420.74 642.1 418.2 642.1C415.659 642.1 413.6 644.16 413.6 646.7C413.6 649.241 415.659 651.3 418.2 651.3Z" stroke="#013711" stroke-width="4" stroke-miterlimit="10" stroke-linecap="round" stroke-linejoin="round"/>
<path d="M418.2 611C416.3 611 414.8 609.5 414.8 607.6V578.2C414.8 576.3 416.3 574.8 418.2 574.8C420.1 574.8 421.6 576.3 421.6 578.2V607.6C421.6 609.5 420.1 611 418.2 611Z" fill="white"/>
<path d="M418.2 611C416.3 611 414.8 609.5 414.8 607.6V578.2C414.8 576.3 416.3 574.8 418.2 574.8C420.1 574.8 421.6 576.3 421.6 578.2V607.6C421.6 609.5 420.1 611 418.2 611Z" stroke="#013711" stroke-width="4" stroke-miterlimit="10" stroke-linecap="round" stroke-linejoin="round"/>
<g opacity="0.41">
<path opacity="0.41" d="M615.4 569.6H568.3C566.5 569.6 564.8 568.6 563.9 567L549.3 539.8C539.5 521.7 543.3 500.5 559 485.8L580 466.2C586.4 460.2 597.2 460.3 603.6 466.2L624.6 485.9C640.3 500.6 644.1 521.7 634.3 539.8L619.8 567C618.9 568.6 617.2 569.6 615.4 569.6ZM571.3 559.6H612.4L625.6 535.1C633.2 521.2 630.1 504.8 617.8 493.3L596.8 473.6C594.3 471.3 589.4 471.2 586.9 473.6L565.9 493.2C553.6 504.7 550.5 521.2 558.1 535.1L571.3 559.6Z" fill="#013711"/>
</g>
<path d="M570.4 556.6H613.2L626.5 530.7C634.4 515.5 631.3 497.6 618.5 485.1L599.4 466.3C595.4 462.3 588.2 462.3 584.2 466.3L565.1 485C552.4 497.5 549.3 515.6 557.1 530.8L570.4 556.6Z" fill="#049448"/>
<path d="M568.3 556.6H615.4L630 529.4C638.7 513.5 635.2 494.7 621.2 481.6L600.2 461.9C595.8 457.7 587.9 457.7 583.5 461.9L562.5 481.5C548.5 494.6 545.1 513.5 553.7 529.5L568.3 556.6Z" stroke="#013711" stroke-width="10" stroke-miterlimit="10" stroke-linecap="round" stroke-linejoin="round"/>
<path d="M575.8 546.6H574.3L573.6 545.3" stroke="#013711" stroke-width="3" stroke-linecap="round" stroke-linejoin="round"/>
<path d="M570.3 539.1L562.6 524.7C556.1 512.8 558.8 498.7 569.4 488.8L590.4 469.2C590.6 469 591.1 468.8 591.9 468.8C592.7 468.8 593.3 469.1 593.5 469.2L614.5 488.9C625.2 498.9 627.8 512.6 621.3 524.7L611.9 542.2" stroke="#013711" stroke-width="3" stroke-linecap="round" stroke-linejoin="round" stroke-dasharray="2.99 2.99"/>
<path d="M610.1 545.3L609.4 546.6H607.9" stroke="#013711" stroke-width="3" stroke-linecap="round" stroke-linejoin="round"/>
<path d="M601.8 546.6H578.8" stroke="#013711" stroke-width="3" stroke-linecap="round" stroke-linejoin="round" stroke-dasharray="2.6 2.6"/>
<g opacity="0.41">
<path opacity="0.41" d="M591.5 693.5C581.1 693.5 572.6 685 572.6 674.6V513.4C572.6 510.6 574.8 508.4 577.6 508.4H605.4C608.2 508.4 610.4 510.6 610.4 513.4V674.6C610.4 685 601.9 693.5 591.5 693.5ZM582.6 518.4V674.6C582.6 679.5 586.6 683.5 591.5 683.5C596.4 683.5 600.4 679.5 600.4 674.6V518.4H582.6Z" fill="#013711"/>
</g>
<path d="M591.5 682.5C583.8 682.5 577.6 676.3 577.6 668.6V507.4H605.4V668.6C605.4 676.3 599.2 682.5 591.5 682.5Z" fill="#F9941C"/>
<path opacity="0.37" d="M591.5 672.9C583.8 672.9 577.6 666.7 577.6 659V669.6C577.6 677.3 583.8 683.5 591.5 683.5C599.2 683.5 605.4 677.3 605.4 669.6V659C605.4 666.6 599.2 672.9 591.5 672.9Z" fill="#F9941C"/>
<path opacity="0.37" d="M605.3 590.5H577.5V613H605.3V590.5Z" fill="#F9941C"/>
<path d="M591.5 682.5C583.8 682.5 577.6 676.3 577.6 668.6V507.4H605.4V668.6C605.4 676.3 599.2 682.5 591.5 682.5Z" stroke="#013711" stroke-width="8" stroke-miterlimit="10" stroke-linecap="round" stroke-linejoin="round"/>
<path d="M577.6 611V590.5H605.4V611H617V584.5C617 581.4 614.5 578.9 611.4 578.9H571.6C568.5 578.9 566 581.4 566 584.5V611H577.6Z" fill="white"/>
<path d="M577.6 611V590.5H605.4V611H617V588.2C617 583.1 612.9 579 607.8 579H575.3C570.2 579 566.1 583.1 566.1 588.2V611H577.6Z" stroke="#013711" stroke-width="8" stroke-miterlimit="10" stroke-linecap="round" stroke-linejoin="round"/>
<path d="M596.1 518.4L586.9 527.6" stroke="#013711" stroke-width="4" stroke-miterlimit="10" stroke-linecap="round" stroke-linejoin="round"/>
<path d="M596.1 527.6L586.9 518.4" stroke="#013711" stroke-width="4" stroke-miterlimit="10" stroke-linecap="round" stroke-linejoin="round"/>
<path d="M591.4 615C593.941 615 596 612.941 596 610.4C596 607.86 593.941 605.8 591.4 605.8C588.86 605.8 586.8 607.86 586.8 610.4C586.8 612.941 588.86 615 591.4 615Z" fill="white"/>
<path d="M591.4 613C593.941 613 596 610.941 596 608.4C596 605.86 593.941 603.8 591.4 603.8C588.86 603.8 586.8 605.86 586.8 608.4C586.8 610.941 588.86 613 591.4 613Z" stroke="#013711" stroke-width="4" stroke-miterlimit="10" stroke-linecap="round" stroke-linejoin="round"/>
<path d="M591.4 631C593.941 631 596 628.941 596 626.4C596 623.86 593.941 621.8 591.4 621.8C588.86 621.8 586.8 623.86 586.8 626.4C586.8 628.941 588.86 631 591.4 631Z" fill="white"/>
<path d="M591.4 631C593.941 631 596 628.941 596 626.4C596 623.86 593.941 621.8 591.4 621.8C588.86 621.8 586.8 623.86 586.8 626.4C586.8 628.941 588.86 631 591.4 631Z" stroke="#013711" stroke-width="4" stroke-miterlimit="10" stroke-linecap="round" stroke-linejoin="round"/>
<path d="M591.4 651.3C593.941 651.3 596 649.241 596 646.7C596 644.16 593.941 642.1 591.4 642.1C588.86 642.1 586.8 644.16 586.8 646.7C586.8 649.241 588.86 651.3 591.4 651.3Z" fill="white"/>
<path d="M591.4 651.3C593.941 651.3 596 649.241 596 646.7C596 644.16 593.941 642.1 591.4 642.1C588.86 642.1 586.8 644.16 586.8 646.7C586.8 649.241 588.86 651.3 591.4 651.3Z" stroke="#013711" stroke-width="4" stroke-miterlimit="10" stroke-linecap="round" stroke-linejoin="round"/>
<path d="M591.4 611C589.5 611 588 609.5 588 607.6V578.2C588 576.3 589.5 574.8 591.4 574.8C593.3 574.8 594.8 576.3 594.8 578.2V607.6C594.8 609.5 593.3 611 591.4 611Z" fill="white"/>
<path d="M591.4 611C589.5 611 588 609.5 588 607.6V578.2C588 576.3 589.5 574.8 591.4 574.8C593.3 574.8 594.8 576.3 594.8 578.2V607.6C594.8 609.5 593.3 611 591.4 611Z" stroke="#013711" stroke-width="4" stroke-miterlimit="10" stroke-linecap="round" stroke-linejoin="round"/>
<path d="M505.3 666.3C523.36 666.3 538 657.301 538 646.2C538 635.099 523.36 626.1 505.3 626.1C487.24 626.1 472.6 635.099 472.6 646.2C472.6 657.301 487.24 666.3 505.3 666.3Z" fill="#FCCA86"/>
<path opacity="0.6" d="M505.3 631.8C521.8 631.8 535.5 639.3 537.7 649.1C537.9 648.2 538 647.2 538 646.3C538 635.2 523.3 626.2 505.3 626.2C487.3 626.2 472.6 635.2 472.6 646.3C472.6 647.3 472.7 648.2 472.9 649.1C475.1 639.3 488.7 631.8 505.3 631.8Z" fill="#FCCA86"/>
<path opacity="0.77" d="M505.3 657.3C490.8 657.3 478.3 652.5 472.6 645.7C472.6 645.9 472.6 646.1 472.6 646.2C472.6 657.3 487.3 666.3 505.3 666.3C523.3 666.3 538 657.3 538 646.2C538 646 538 645.8 538 645.7C532.2 652.6 519.8 657.3 505.3 657.3Z" fill="#FCCA86"/>
<path d="M505.3 666.3C523.36 666.3 538 657.301 538 646.2C538 635.099 523.36 626.1 505.3 626.1C487.24 626.1 472.6 635.099 472.6 646.2C472.6 657.301 487.24 666.3 505.3 666.3Z" stroke="#013711" stroke-width="6" stroke-miterlimit="10" stroke-linecap="round" stroke-linejoin="round"/>
<path d="M505.3 666.3C523.36 666.3 538 657.301 538 646.2C538 635.099 523.36 626.1 505.3 626.1C487.24 626.1 472.6 635.099 472.6 646.2C472.6 657.301 487.24 666.3 505.3 666.3Z" stroke="#013711" stroke-width="6" stroke-miterlimit="10" stroke-linecap="round" stroke-linejoin="round"/>
<path d="M527.1 642.4C528.3 643.7 529 645 529 646.2C529 649 525.3 652.6 519 655" stroke="#013711" stroke-width="3" stroke-miterlimit="10" stroke-linecap="round" stroke-linejoin="round"/>
<path d="M505.3 635.1C512.4 635.1 518.4 636.8 522.5 639" stroke="#013711" stroke-width="3" stroke-miterlimit="10" stroke-linecap="round" stroke-linejoin="round"/>
<path d="M873.368 510.022L845.311 493.716L845.397 524.219L873.455 540.524L873.368 510.022Z" fill="#777BB4"/>
<path d="M873.368 510.022L845.311 493.716L845.397 524.219L873.455 540.524L873.368 510.022Z" stroke="#1E223B" stroke-width="2" stroke-linecap="round" stroke-linejoin="round"/>
<path opacity="0.88" d="M899.913 494.696L871.856 478.39L845.311 493.716L873.368 510.022L899.913 494.696Z" fill="#FF5855" stroke="#1E223B" stroke-miterlimit="10"/>
<path d="M873.368 510.021L873.455 540.523L900 525.197L899.913 494.695L873.368 510.021Z" fill="#0270BB"/>
<path d="M873.368 510.021L873.455 540.523L900 525.197L899.913 494.695L873.368 510.021Z" stroke="#1E223B" stroke-width="2" stroke-linecap="round" stroke-linejoin="round"/>
<path opacity="0.59" d="M893.955 467C890.641 467 887.955 464.314 887.955 461C887.955 457.686 890.641 455 893.955 455C897.269 455 899.955 457.686 899.955 461C899.955 464.314 897.269 467 893.955 467Z" fill="white"/>
<path d="M893.955 467C890.641 467 887.955 464.314 887.955 461C887.955 457.686 890.641 455 893.955 455C897.269 455 899.955 457.686 899.955 461C899.955 464.314 897.269 467 893.955 467Z" stroke="#1E223B" stroke-width="2" stroke-linecap="round" stroke-linejoin="round"/>
<path opacity="0.59" d="M873.455 467C870.141 467 867.455 464.314 867.455 461C867.455 457.686 870.141 455 873.455 455C876.769 455 879.455 457.686 879.455 461C879.455 464.314 876.769 467 873.455 467Z" fill="white"/>
<path d="M873.455 467C870.141 467 867.455 464.314 867.455 461C867.455 457.686 870.141 455 873.455 455C876.769 455 879.455 457.686 879.455 461C879.455 464.314 876.769 467 873.455 467Z" stroke="#1E223B" stroke-width="2" stroke-linecap="round" stroke-linejoin="round"/>
<path opacity="0.59" d="M852.955 467C849.641 467 846.955 464.314 846.955 461C846.955 457.686 849.641 455 852.955 455C856.269 455 858.955 457.686 858.955 461C858.955 464.314 856.269 467 852.955 467Z" fill="white"/>
<path d="M852.955 467C849.641 467 846.955 464.314 846.955 461C846.955 457.686 849.641 455 852.955 455C856.269 455 858.955 457.686 858.955 461C858.955 464.314 856.269 467 852.955 467Z" stroke="#1E223B" stroke-width="2" stroke-linecap="round" stroke-linejoin="round"/>
<path d="M845.363 511.989H819.113C807.148 511.989 795.674 507.236 787.213 498.776C778.753 490.315 774 478.841 774 466.876V447.882C774 435.979 769.272 424.563 760.855 416.146C752.438 407.729 741.022 403 729.119 403H715" stroke="#1E223B" stroke-width="2" stroke-linecap="round" stroke-linejoin="round"/>
<path d="M899.913 494.696L871.856 478.39L845.311 493.716L873.368 510.022L899.913 494.696Z" stroke="#1E223B" stroke-width="2" stroke-linecap="round" stroke-linejoin="round"/>
<path d="M670.174 364.767C732.881 277.454 733.404 234.832 662.376 171.964" stroke="black" stroke-dasharray="12 12"/>
<circle cx="634.103" cy="146.241" r="36" transform="rotate(-51.9402 634.103 146.241)" stroke="black"/>
<circle r="8" transform="matrix(-0.616484 0.787367 0.787367 0.616484 634.89 146.857)" stroke="black"/>
<path d="M632.242 122.819L631.098 130.905L631.119 130.907C630.445 131.036 629.78 131.207 629.128 131.419L629.145 131.408L624.236 124.881C623.846 124.361 623.265 124.018 622.622 123.927C621.978 123.836 621.325 124.004 620.806 124.394L616.238 127.83C615.718 128.22 615.376 128.801 615.285 129.444C615.194 130.087 615.362 130.74 615.752 131.26L620.66 137.786L620.667 137.777C620.286 138.339 619.94 138.925 619.632 139.53L619.633 139.52L611.549 138.375C611.23 138.329 610.906 138.347 610.594 138.427C610.283 138.508 609.99 138.648 609.733 138.842C609.475 139.035 609.259 139.277 609.095 139.554C608.932 139.831 608.824 140.138 608.779 140.456L607.979 146.117C607.934 146.435 607.952 146.759 608.032 147.071C608.112 147.382 608.253 147.675 608.446 147.932C608.64 148.19 608.882 148.406 609.159 148.57C609.436 148.733 609.742 148.841 610.061 148.886L618.146 150.031L618.147 150.021C618.276 150.689 618.446 151.348 618.656 151.994L618.649 151.985L612.122 156.892C611.603 157.282 611.26 157.863 611.17 158.506C611.079 159.15 611.247 159.803 611.637 160.322L615.072 164.891C615.463 165.41 616.044 165.753 616.687 165.844C617.33 165.935 617.983 165.767 618.503 165.376L625.029 160.469L625.017 160.454C625.584 160.839 626.175 161.187 626.787 161.498L626.766 161.495L625.621 169.58C625.53 170.223 625.698 170.876 626.089 171.395C626.479 171.915 627.06 172.258 627.703 172.349L633.364 173.149C633.682 173.194 634.007 173.177 634.318 173.096C634.63 173.016 634.922 172.875 635.18 172.682C635.437 172.489 635.653 172.247 635.817 171.97C635.981 171.693 636.088 171.386 636.133 171.068L637.278 162.983L637.247 162.979C637.928 162.849 638.601 162.675 639.26 162.459L639.232 162.48L644.139 169.006C644.53 169.526 645.11 169.869 645.754 169.96C646.397 170.051 647.05 169.883 647.569 169.492L652.138 166.057C652.657 165.667 653 165.086 653.091 164.443C653.182 163.8 653.014 163.147 652.623 162.627L647.716 156.101L647.681 156.127C648.075 155.549 648.431 154.946 648.747 154.322L648.741 154.364L656.826 155.508C657.145 155.554 657.469 155.536 657.781 155.456C658.092 155.375 658.385 155.235 658.642 155.041C658.9 154.848 659.116 154.606 659.28 154.329C659.443 154.052 659.551 153.745 659.596 153.427L660.396 147.766C660.487 147.123 660.319 146.47 659.928 145.951C659.538 145.432 658.957 145.089 658.314 144.997L650.229 143.852L650.223 143.893C650.093 143.206 649.918 142.528 649.7 141.864L649.726 141.898L656.252 136.992C656.509 136.798 656.726 136.556 656.889 136.279C657.053 136.002 657.16 135.695 657.205 135.377C657.251 135.058 657.232 134.734 657.152 134.422C657.072 134.111 656.931 133.818 656.738 133.561L653.302 128.993C653.109 128.736 652.867 128.519 652.59 128.355C652.313 128.192 652.006 128.084 651.688 128.039C651.369 127.994 651.045 128.012 650.734 128.092C650.422 128.173 650.129 128.313 649.872 128.507L643.345 133.42L643.366 133.448C642.793 133.057 642.195 132.704 641.576 132.389L641.608 132.394L642.753 124.309C642.844 123.666 642.676 123.013 642.285 122.493C641.895 121.974 641.314 121.631 640.671 121.54L635.01 120.74C634.368 120.649 633.715 120.817 633.196 121.207C632.677 121.597 632.334 122.177 632.242 122.819Z" stroke="#1E223B" stroke-linecap="round" stroke-linejoin="round"/>
<path opacity="0.5" d="M382.841 247.318H408.264L434.787 265V247.318H453.569C455.914 247.318 458.162 246.387 459.821 244.729C461.479 243.071 462.41 240.822 462.41 238.477V189.841C462.41 187.496 461.479 185.248 459.821 183.59C458.162 181.932 455.914 181 453.569 181H382.841C380.496 181 378.248 181.932 376.589 183.59C374.931 185.248 374 187.496 374 189.841V238.474C374 239.635 374.228 240.785 374.672 241.858C375.116 242.931 375.767 243.906 376.588 244.728C377.409 245.549 378.384 246.2 379.457 246.645C380.53 247.089 381.68 247.318 382.841 247.318Z" fill="white"/>
<path opacity="0.39" d="M515.606 209.62C521.813 209.62 526.844 204.589 526.844 198.382C526.844 192.175 521.813 187.143 515.606 187.143C509.399 187.143 504.367 192.175 504.367 198.382C504.367 204.589 509.399 209.62 515.606 209.62Z" fill="white"/>
<path d="M382.841 247.318H408.264L434.787 265V247.318H453.569C455.914 247.318 458.162 246.387 459.821 244.729C461.479 243.071 462.41 240.822 462.41 238.477V189.841C462.41 187.496 461.479 185.248 459.821 183.59C458.162 181.932 455.914 181 453.569 181H382.841C380.496 181 378.248 181.932 376.589 183.59C374.931 185.248 374 187.496 374 189.841V238.474C374 239.635 374.228 240.785 374.672 241.858C375.116 242.931 375.767 243.906 376.588 244.728C377.409 245.549 378.384 246.2 379.457 246.645C380.53 247.089 381.68 247.318 382.841 247.318V247.318Z" stroke="#1E223B" stroke-width="2" stroke-linecap="round" stroke-linejoin="round"/>
<path d="M396.047 206.623H436.506" stroke="#1E223B" stroke-width="3" stroke-linecap="round" stroke-linejoin="round"/>
<path d="M396.047 217.113H421.521" stroke="#1E223B" stroke-width="3" stroke-linecap="round" stroke-linejoin="round"/>
<path d="M515.606 209.62C521.813 209.62 526.844 204.589 526.844 198.382C526.844 192.175 521.813 187.143 515.606 187.143C509.399 187.143 504.367 192.175 504.367 198.382C504.367 204.589 509.399 209.62 515.606 209.62Z" stroke="#1E223B" stroke-width="2" stroke-linecap="round" stroke-linejoin="round"/>
</svg>
