<svg width="1000" height="1000" viewBox="0 0 1000 1000" fill="none" xmlns="http://www.w3.org/2000/svg">
<path d="M599.85 437.75L440.732 335.573C437.029 333.196 435.945 328.221 438.323 324.519L518.4 199.816C520.777 196.113 525.752 195.029 529.454 197.407L688.573 299.583C692.275 301.961 693.359 306.935 690.982 310.638L610.851 435.425C608.473 439.127 603.553 440.127 599.85 437.75Z" fill="#2D425E"/>
<path d="M684.822 320.23L512.24 209.408L518.454 199.732C520.831 196.029 525.806 194.945 529.508 197.323L688.627 299.499C692.329 301.877 693.413 306.851 691.036 310.553L684.822 320.23Z" stroke="#1F3969" stroke-width="4" stroke-miterlimit="10" stroke-linecap="round" stroke-linejoin="round"/>
<path d="M682.769 323.428L510.187 212.606L518.454 199.732C520.831 196.029 525.806 194.945 529.508 197.323L688.627 299.499C692.329 301.877 693.413 306.851 691.036 310.553L682.769 323.428Z" fill="#D0DDF0"/>
<path d="M682.769 323.428L510.187 212.606L518.454 199.732C520.831 196.029 525.806 194.945 529.508 197.323L688.627 299.499C692.329 301.877 693.413 306.851 691.036 310.553L682.769 323.428Z" stroke="#1F3969" stroke-width="4" stroke-miterlimit="10" stroke-linecap="round" stroke-linejoin="round"/>
<path d="M682.769 323.428L510.187 212.606L518.454 199.732C520.831 196.029 525.806 194.945 529.508 197.323L688.627 299.499C692.329 301.877 693.413 306.851 691.036 310.553L682.769 323.428Z" stroke="#1F3969" stroke-width="4" stroke-miterlimit="10" stroke-linecap="round" stroke-linejoin="round"/>
<path d="M599.85 437.75L440.732 335.573C437.029 333.196 435.945 328.221 438.323 324.519L518.4 199.816C520.777 196.113 525.752 195.029 529.454 197.407L688.573 299.583C692.275 301.961 693.359 306.935 690.982 310.638L610.851 435.425C608.473 439.127 603.553 440.127 599.85 437.75Z" stroke="#1F3969" stroke-width="4" stroke-miterlimit="10" stroke-linecap="round" stroke-linejoin="round"/>
<path d="M531.206 217.071C533.065 218.265 535.54 217.726 536.734 215.867C537.927 214.008 537.388 211.534 535.529 210.34C533.67 209.146 531.196 209.685 530.002 211.544C528.808 213.403 529.348 215.878 531.206 217.071Z" fill="#1F3969"/>
<path d="M542.903 224.582C544.761 225.776 547.236 225.236 548.43 223.378C549.623 221.519 549.084 219.044 547.225 217.85C545.366 216.657 542.892 217.196 541.698 219.055C540.504 220.914 541.044 223.388 542.903 224.582Z" fill="#1F3969"/>
<path d="M554.599 232.093C556.458 233.286 558.932 232.747 560.126 230.888C561.32 229.029 560.78 226.555 558.921 225.361C557.063 224.167 554.588 224.707 553.394 226.565C552.201 228.424 552.74 230.899 554.599 232.093Z" fill="#1F3969"/>
<path d="M599.314 291.824L610.253 298.848" stroke="white" stroke-width="4" stroke-miterlimit="10" stroke-linecap="round" stroke-linejoin="round"/>
<path d="M543.862 256.216L591.236 286.636" stroke="#7BFFA0" stroke-width="4" stroke-miterlimit="10" stroke-linecap="round" stroke-linejoin="round"/>
<path d="M520.47 241.195L537.13 251.893" stroke="#9169FF" stroke-width="4" stroke-miterlimit="10" stroke-linecap="round" stroke-linejoin="round"/>
<path d="M488.956 338.018L525.139 361.253" stroke="#9169FF" stroke-width="4" stroke-miterlimit="10" stroke-linecap="round" stroke-linejoin="round"/>
<path d="M467.247 324.078L478.943 331.588" stroke="#7BFFA0" stroke-width="4" stroke-miterlimit="10" stroke-linecap="round" stroke-linejoin="round"/>
<path d="M584.59 296.986L591.405 301.363" stroke="white" stroke-width="4" stroke-miterlimit="10" stroke-linecap="round" stroke-linejoin="round"/>
<path d="M553.624 277.102L576.512 291.799" stroke="#9169FF" stroke-width="4" stroke-miterlimit="10" stroke-linecap="round" stroke-linejoin="round"/>
<path d="M522.154 256.894L545.462 271.861" stroke="#FFC47D" stroke-width="4" stroke-miterlimit="10" stroke-linecap="round" stroke-linejoin="round"/>
<path d="M551.606 290.424L571.717 303.338" stroke="white" stroke-width="4" stroke-miterlimit="10" stroke-linecap="round" stroke-linejoin="round"/>
<path d="M526.362 274.214L545.295 286.371" stroke="#FF5757" stroke-width="4" stroke-miterlimit="10" stroke-linecap="round" stroke-linejoin="round"/>
<path d="M547.653 302.503L551.776 305.15" stroke="white" stroke-width="4" stroke-miterlimit="10" stroke-linecap="round" stroke-linejoin="round"/>
<path d="M530.992 291.804L540.332 297.802" stroke="#9169FF" stroke-width="4" stroke-miterlimit="10" stroke-linecap="round" stroke-linejoin="round"/>
<path d="M508.862 277.594L523.924 287.265" stroke="#7BFFA0" stroke-width="4" stroke-miterlimit="10" stroke-linecap="round" stroke-linejoin="round"/>
<path d="M534.473 308.776L561.316 326.013" stroke="#FFC47D" stroke-width="4" stroke-miterlimit="10" stroke-linecap="round" stroke-linejoin="round"/>
<path d="M502.162 288.028L526.227 303.481" stroke="#FF5757" stroke-width="4" stroke-miterlimit="10" stroke-linecap="round" stroke-linejoin="round"/>
<path d="M558.877 339.064L573.434 348.412" stroke="#9169FF" stroke-width="4" stroke-miterlimit="10" stroke-linecap="round" stroke-linejoin="round"/>
<path d="M527.827 319.126L551.136 334.093" stroke="#FF5757" stroke-width="4" stroke-miterlimit="10" stroke-linecap="round" stroke-linejoin="round"/>
<path d="M506.37 305.348L519.581 313.831" stroke="#7BFFA0" stroke-width="4" stroke-miterlimit="10" stroke-linecap="round" stroke-linejoin="round"/>
<path d="M531.784 336.284L544.489 344.443" stroke="white" stroke-width="4" stroke-miterlimit="10" stroke-linecap="round" stroke-linejoin="round"/>
<path d="M499.724 315.698L523.032 330.665" stroke="#9169FF" stroke-width="4" stroke-miterlimit="10" stroke-linecap="round" stroke-linejoin="round"/>
<path d="M558.207 367.869L572.764 377.217" stroke="white" stroke-width="4" stroke-miterlimit="10" stroke-linecap="round" stroke-linejoin="round"/>
<path d="M513.694 339.286L550.297 362.79" stroke="#FFC47D" stroke-width="4" stroke-miterlimit="10" stroke-linecap="round" stroke-linejoin="round"/>
<path d="M482.223 319.077L505.532 334.044" stroke="white" stroke-width="4" stroke-miterlimit="10" stroke-linecap="round" stroke-linejoin="round"/>
<path d="M658.3 440.8C656.1 429.2 652.9 417.9 648.9 407.1C625 343.3 565.4 301.9 499.8 301.9H499.7C434.1 301.9 374.6 343.3 350.6 407.1C346.6 417.9 343.4 429.1 341.2 440.8C329.8 512.4 325.7 584.4 330.9 655.7C335.6 707.1 379.5 750.9 418.9 750.9C472.8 750.9 526.6 750.9 580.5 750.9C620 750.9 663.9 707.1 668.5 655.7C673.8 584.4 669.7 512.4 658.3 440.8Z" fill="#F26161"/>
<path opacity="0.3" d="M668.6 643.5C663.9 693.9 620 736.7 580.6 736.7C526.7 736.7 472.9 736.7 419 736.7C379.5 736.7 335.6 693.8 331 643.5C329.7 626.3 329 609.1 328.8 591.9C328.6 614.9 329.3 637.8 331 660.6C335.7 711 379.6 753.8 419 753.8C472.9 753.8 526.7 753.8 580.6 753.8C620.1 753.8 664 710.9 668.6 660.6C670.3 637.7 671 614.8 670.8 591.9C670.6 609.1 669.9 626.4 668.6 643.5Z" fill="#994A4A"/>
<path opacity="0.39" d="M658.3 440.8C656.1 429.2 652.9 417.9 648.9 407.1C625 343.3 565.4 301.9 499.8 301.9H499.7C434.1 301.9 374.6 343.3 350.6 407.1C346.6 417.9 343.4 429.1 341.2 440.8C329.8 512.4 325.7 584.4 330.9 655.7C333.3 682.2 346.2 706.8 363.5 724.2C350.4 707.9 341 686.9 339.1 664.5C334.1 594.5 338 524 348.9 453.8C351 442.4 354 431.4 357.9 420.8C380.7 358.2 437.4 317.6 499.8 317.6H499.9C562.3 317.6 619 358.2 641.8 420.8C645.6 431.4 648.7 442.4 650.8 453.8C661.7 524 665.5 594.5 660.6 664.5C658.6 686.9 649.3 707.9 636.2 724.2C653.5 706.7 666.4 682.2 668.8 655.7C673.8 584.4 669.7 512.4 658.3 440.8Z" fill="#F26161"/>
<path opacity="0.3" d="M594.2 707.9H412.5C400.5 707.9 390.7 698.2 390.7 686.1V605.1C390.7 593.1 400.4 583.3 412.5 583.3H594.2C606.2 583.3 616 593 616 605.1V686.1C616 698.2 606.3 707.9 594.2 707.9Z" fill="#994A4A" stroke="#994A4A" stroke-width="10" stroke-miterlimit="10" stroke-linecap="round" stroke-linejoin="round"/>
<path d="M594.2 697.9H412.5C400.5 697.9 390.7 688.2 390.7 676.1V595.1C390.7 583.1 400.4 573.3 412.5 573.3H594.2C606.2 573.3 616 583 616 595.1V676.1C616 688.2 606.3 697.9 594.2 697.9Z" fill="#725865"/>
<path opacity="0.4" d="M510.1 643.5L504.1 649.7C501.8 652.1 497.8 652.1 495.5 649.7L489.5 643.5C489 643 488.8 642.4 488.8 641.8V566.6C488.8 565.2 490 564.1 491.6 564.1H508C509.5 564.1 510.8 565.2 510.8 566.6V641.8C510.8 642.5 510.5 643.1 510.1 643.5Z" fill="#3E3442" stroke="#3E3442" stroke-width="6" stroke-miterlimit="10" stroke-linecap="round" stroke-linejoin="round"/>
<path d="M594.2 697.9H412.5C400.5 697.9 390.7 688.2 390.7 676.1V595.1C390.7 583.1 400.4 573.3 412.5 573.3H594.2C606.2 573.3 616 583 616 595.1V676.1C616 688.2 606.3 697.9 594.2 697.9Z" stroke="#3E3442" stroke-width="10" stroke-miterlimit="10" stroke-linecap="round" stroke-linejoin="round"/>
<path d="M412.5 685.9C407.1 685.9 402.7 681.5 402.7 676.1V595.1C402.7 589.7 407.1 585.3 412.5 585.3H594.2C599.6 585.3 604 589.7 604 595.1V676.1C604 681.5 599.6 685.9 594.2 685.9H412.5Z" stroke="#3E3442" stroke-width="3" stroke-linecap="round" stroke-linejoin="round" stroke-dasharray="4.99 4.99"/>
<path d="M658.3 440.8C656.1 429.2 652.9 417.9 648.9 407.1C625 343.3 565.4 301.9 499.8 301.9H499.7C434.1 301.9 374.6 343.3 350.6 407.1C346.6 417.9 343.4 429.1 341.2 440.8C329.8 512.4 325.7 584.4 330.9 655.7C335.6 707.1 379.5 750.9 418.9 750.9C472.8 750.9 526.6 750.9 580.5 750.9C620 750.9 663.9 707.1 668.5 655.7C673.8 584.4 669.7 512.4 658.3 440.8Z" stroke="#3E3442" stroke-width="10" stroke-miterlimit="10" stroke-linecap="round" stroke-linejoin="round"/>
<path d="M510.1 634.1L503.4 641.6C501.5 643.8 498.1 643.8 496.1 641.6L489.4 634.1C488.9 633.6 488.7 632.9 488.7 632.3V567C488.7 565.5 489.9 564.2 491.5 564.2H508C509.5 564.2 510.8 565.4 510.8 567V632.3C510.8 632.9 510.5 633.6 510.1 634.1Z" fill="#EDAB7A"/>
<path d="M510.1 634.1L504.1 640.8C501.8 643.4 497.8 643.4 495.5 640.8L489.5 634.1C489 633.6 488.8 632.9 488.8 632.3V567C488.8 565.5 490 564.2 491.6 564.2H508C509.5 564.2 510.8 565.4 510.8 567V632.3C510.8 632.9 510.5 633.6 510.1 634.1Z" stroke="#3E3442" stroke-width="6" stroke-miterlimit="10" stroke-linecap="round" stroke-linejoin="round"/>
<path d="M510.8 601.6H488.8V615.1H510.8V601.6Z" stroke="#3E3442" stroke-width="6" stroke-miterlimit="10" stroke-linecap="round" stroke-linejoin="round"/>
<path d="M499.8 602.8V615.1" stroke="#3E3442" stroke-width="6" stroke-miterlimit="10" stroke-linecap="round" stroke-linejoin="round"/>
<path d="M499.8 581C501.678 581 503.2 579.478 503.2 577.6C503.2 575.722 501.678 574.2 499.8 574.2C497.922 574.2 496.4 575.722 496.4 577.6C496.4 579.478 497.922 581 499.8 581Z" fill="#3E3442"/>
<path d="M499.8 595C501.678 595 503.2 593.478 503.2 591.6C503.2 589.722 501.678 588.2 499.8 588.2C497.922 588.2 496.4 589.722 496.4 591.6C496.4 593.478 497.922 595 499.8 595Z" fill="#3E3442"/>
<path d="M499.8 628.4C501.678 628.4 503.2 626.878 503.2 625C503.2 623.122 501.678 621.6 499.8 621.6C497.922 621.6 496.4 623.122 496.4 625C496.4 626.878 497.922 628.4 499.8 628.4Z" fill="#3E3442"/>
<path d="M520 439.4H478.5C474.5 439.4 471.3 436.2 471.3 432.2V383.2C471.3 379.2 474.5 376 478.5 376H520C524 376 527.2 379.2 527.2 383.2V432.2C527.3 436.1 524 439.4 520 439.4Z" fill="#826776"/>
<path opacity="0.32" d="M527.3 375.9H471.3V403.5H527.3V375.9Z" fill="#725865"/>
<path d="M520 439.4H478.5C474.5 439.4 471.3 436.2 471.3 432.2V383.2C471.3 379.2 474.5 376 478.5 376H520C524 376 527.2 379.2 527.2 383.2V432.2C527.3 436.1 524 439.4 520 439.4Z" stroke="#3E3442" stroke-width="6" stroke-miterlimit="10" stroke-linecap="round" stroke-linejoin="round"/>
<path d="M478.5 433.4C477.8 433.4 477.3 432.8 477.3 432.2V383.2C477.3 382.5 477.9 382 478.5 382H520C520.7 382 521.2 382.6 521.2 383.2V432.2C521.2 432.9 520.6 433.4 520 433.4H478.5Z" stroke="#3E3442" stroke-width="2" stroke-miterlimit="10" stroke-linecap="round" stroke-linejoin="round" stroke-dasharray="3 3"/>
<path d="M532.3 354.9H466.3V393.2H532.3V354.9Z" fill="#F26161"/>
<path d="M532.3 354.9H466.3V393.2H532.3V354.9Z" stroke="#3E3442" stroke-width="6" stroke-miterlimit="10" stroke-linecap="round" stroke-linejoin="round"/>
<path d="M542.1 534.6H453.9C449.4 534.6 445.7 530.9 445.7 526.4C445.7 521.9 449.4 518.2 453.9 518.2H542.1C546.6 518.2 550.3 521.9 550.3 526.4C550.3 530.9 546.7 534.6 542.1 534.6Z" fill="#725865"/>
<path d="M542.1 534.6H453.9C449.4 534.6 445.7 530.9 445.7 526.4C445.7 521.9 449.4 518.2 453.9 518.2H542.1C546.6 518.2 550.3 521.9 550.3 526.4C550.3 530.9 546.7 534.6 542.1 534.6Z" stroke="#3E3442" stroke-width="4" stroke-miterlimit="10" stroke-linecap="round" stroke-linejoin="round"/>
<path d="M507.5 526.4H537.1" stroke="#3E3442" stroke-width="6" stroke-miterlimit="10" stroke-linejoin="round"/>
<path d="M483.2 526.4H498" stroke="#3E3442" stroke-width="6" stroke-miterlimit="10" stroke-linejoin="round"/>
<path d="M459 526.4H475.3" stroke="#3E3442" stroke-width="6" stroke-miterlimit="10" stroke-linejoin="round"/>
<path d="M510 350.1H488.5V414.9H510V350.1Z" fill="#D35050"/>
<path d="M510 350.1H488.5V414.9H510V350.1Z" stroke="#3E3442" stroke-width="4" stroke-miterlimit="10" stroke-linecap="round" stroke-linejoin="round"/>
<path d="M499.8 405.8C501.899 405.8 503.6 404.099 503.6 402C503.6 399.901 501.899 398.2 499.8 398.2C497.701 398.2 496 399.901 496 402C496 404.099 497.701 405.8 499.8 405.8Z" stroke="#3E3442" stroke-width="4" stroke-miterlimit="10" stroke-linecap="round" stroke-linejoin="round"/>
<path d="M573.8 419.6C581.919 419.6 588.5 413.019 588.5 404.9C588.5 396.781 581.919 390.2 573.8 390.2C565.681 390.2 559.1 396.781 559.1 404.9C559.1 413.019 565.681 419.6 573.8 419.6Z" fill="#826776"/>
<path d="M573.8 419.6C581.919 419.6 588.5 413.019 588.5 404.9C588.5 396.781 581.919 390.2 573.8 390.2C565.681 390.2 559.1 396.781 559.1 404.9C559.1 413.019 565.681 419.6 573.8 419.6Z" stroke="#3E3442" stroke-width="2" stroke-miterlimit="10" stroke-linecap="round" stroke-linejoin="round"/>
<path d="M748.7 750.9H774" stroke="#3E3442" stroke-width="10" stroke-miterlimit="10" stroke-linecap="round" stroke-linejoin="round"/>
<path d="M794 750.9H804.3" stroke="#3E3442" stroke-width="10" stroke-miterlimit="10" stroke-linecap="round" stroke-linejoin="round"/>
<path d="M322.3 750.9H712.2" stroke="#3E3442" stroke-width="10" stroke-miterlimit="10" stroke-linecap="round" stroke-linejoin="round"/>
<path d="M240.7 750.9H297.3" stroke="#3E3442" stroke-width="10" stroke-miterlimit="10" stroke-linecap="round" stroke-linejoin="round"/>
<path opacity="0.39" d="M235.548 296.096C264.017 296.096 287.096 273.017 287.096 244.548C287.096 216.079 264.017 193 235.548 193C207.079 193 184 216.079 184 244.548C184 273.017 207.079 296.096 235.548 296.096Z" fill="white"/>
<path d="M208.494 229.899L236.341 213.716L262.687 228.927L234.84 245.109L208.494 229.899Z" stroke="#1E223B" stroke-width="2" stroke-linecap="round" stroke-linejoin="round"/>
<path d="M208.494 229.899L236.341 213.716L262.687 228.927L234.84 245.109L208.494 229.899Z" fill="#028B9E" stroke="#1E223B" stroke-width="2" stroke-linecap="round" stroke-linejoin="round"/>
<path d="M235.548 296.096C264.017 296.096 287.096 273.017 287.096 244.548C287.096 216.079 264.017 193 235.548 193C207.079 193 184 216.079 184 244.548C184 273.017 207.079 296.096 235.548 296.096Z" stroke="#1E223B" stroke-width="2" stroke-linecap="round" stroke-linejoin="round"/>
<path d="M287 245H298.506C306.531 245 314.227 248.166 319.902 253.802C325.577 259.438 328.765 267.081 328.765 275.051V275.051C328.765 278.997 329.547 282.905 331.068 286.551C332.589 290.197 334.818 293.509 337.628 296.3C340.438 299.09 343.774 301.304 347.445 302.814C351.116 304.324 355.051 305.101 359.025 305.101H375.741C383.766 305.101 391.463 308.267 397.137 313.903C402.812 319.539 406 327.182 406 335.152V357" stroke="#1E223B" stroke-width="2" stroke-linecap="round" stroke-linejoin="round" stroke-dasharray="6 8"/>
<path d="M234.84 245.109L262.687 228.927L262.601 259.2L234.754 275.383L234.84 245.109Z" stroke="#1E223B" stroke-width="2" stroke-linecap="round" stroke-linejoin="round"/>
<path d="M234.84 245.108L234.754 275.382L208.408 260.171L208.494 229.898L234.84 245.108Z" stroke="#1E223B" stroke-width="2" stroke-linecap="round" stroke-linejoin="round"/>
<path opacity="0.4" d="M234.84 245.108L234.754 275.382L208.408 260.171L208.494 229.898L234.84 245.108Z" fill="#028B9E" stroke="#1E223B" stroke-width="2" stroke-linecap="round" stroke-linejoin="round"/>
<path d="M880.368 452.022L852.311 435.716L852.397 466.219L880.455 482.524L880.368 452.022Z" fill="#777BB4"/>
<path d="M880.368 452.022L852.311 435.716L852.397 466.219L880.455 482.524L880.368 452.022Z" stroke="#1E223B" stroke-width="2" stroke-linecap="round" stroke-linejoin="round"/>
<path opacity="0.88" d="M906.913 436.696L878.856 420.39L852.311 435.716L880.368 452.022L906.913 436.696Z" fill="#FF5855" stroke="#1E223B" stroke-miterlimit="10"/>
<path d="M880.368 452.021L880.455 482.523L907 467.197L906.913 436.695L880.368 452.021Z" fill="#0270BB"/>
<path d="M880.368 452.021L880.455 482.523L907 467.197L906.913 436.695L880.368 452.021Z" stroke="#1E223B" stroke-width="2" stroke-linecap="round" stroke-linejoin="round"/>
<path opacity="0.59" d="M900.955 409C897.641 409 894.955 406.314 894.955 403C894.955 399.686 897.641 397 900.955 397C904.269 397 906.955 399.686 906.955 403C906.955 406.314 904.269 409 900.955 409Z" fill="white"/>
<path d="M900.955 409C897.641 409 894.955 406.314 894.955 403C894.955 399.686 897.641 397 900.955 397C904.269 397 906.955 399.686 906.955 403C906.955 406.314 904.269 409 900.955 409Z" stroke="#1E223B" stroke-width="2" stroke-linecap="round" stroke-linejoin="round"/>
<path opacity="0.59" d="M880.455 409C877.141 409 874.455 406.314 874.455 403C874.455 399.686 877.141 397 880.455 397C883.769 397 886.455 399.686 886.455 403C886.455 406.314 883.769 409 880.455 409Z" fill="white"/>
<path d="M880.455 409C877.141 409 874.455 406.314 874.455 403C874.455 399.686 877.141 397 880.455 397C883.769 397 886.455 399.686 886.455 403C886.455 406.314 883.769 409 880.455 409Z" stroke="#1E223B" stroke-width="2" stroke-linecap="round" stroke-linejoin="round"/>
<path opacity="0.59" d="M859.955 409C856.641 409 853.955 406.314 853.955 403C853.955 399.686 856.641 397 859.955 397C863.269 397 865.955 399.686 865.955 403C865.955 406.314 863.269 409 859.955 409Z" fill="white"/>
<path d="M859.955 409C856.641 409 853.955 406.314 853.955 403C853.955 399.686 856.641 397 859.955 397C863.269 397 865.955 399.686 865.955 403C865.955 406.314 863.269 409 859.955 409Z" stroke="#1E223B" stroke-width="2" stroke-linecap="round" stroke-linejoin="round"/>
<path d="M852.363 453.989H826.113C814.148 453.989 802.674 449.236 794.213 440.776C785.753 432.315 781 420.841 781 408.876V389.882C781 377.979 776.271 366.563 767.855 358.146C759.438 349.729 748.022 345 736.119 345H722" stroke="#1E223B" stroke-width="2" stroke-linecap="round" stroke-linejoin="round"/>
<path d="M906.913 436.696L878.856 420.39L852.311 435.716L880.368 452.022L906.913 436.696Z" stroke="#1E223B" stroke-width="2" stroke-linecap="round" stroke-linejoin="round"/>
<path d="M677.174 306.767C739.881 219.454 740.404 176.832 669.376 113.964" stroke="black" stroke-dasharray="12 12"/>
<circle cx="641.103" cy="88.2406" r="36" transform="rotate(-51.9402 641.103 88.2406)" stroke="black"/>
<circle r="8" transform="matrix(-0.616484 0.787367 0.787367 0.616484 641.89 88.857)" stroke="black"/>
<path d="M639.242 64.8194L638.098 72.9046L638.119 72.9073C637.445 73.0358 636.78 73.2068 636.128 73.4191L636.144 73.4075L631.236 66.8805C630.846 66.3613 630.265 66.0185 629.622 65.9273C628.978 65.8362 628.325 66.0042 627.806 66.3945L623.237 69.8298C622.718 70.2203 622.376 70.801 622.285 71.4441C622.193 72.0873 622.362 72.7403 622.752 73.2596L627.66 79.7862L627.667 79.777C627.286 80.3392 626.94 80.9247 626.632 81.5301L626.633 81.5196L618.548 80.3746C618.23 80.3294 617.906 80.3473 617.594 80.4275C617.282 80.5076 616.99 80.6484 616.732 80.8417C616.475 81.035 616.259 81.2771 616.095 81.5541C615.932 81.8311 615.824 82.1377 615.779 82.4563L614.979 88.1166C614.934 88.4351 614.952 88.7594 615.032 89.0709C615.112 89.3825 615.253 89.6752 615.446 89.9324C615.64 90.1895 615.882 90.4061 616.159 90.5696C616.436 90.7332 616.742 90.8406 617.061 90.8857L625.146 92.031L625.147 92.0209C625.276 92.6887 625.445 93.3478 625.656 93.9944L625.649 93.9848L619.122 98.8919C618.603 99.2824 618.26 99.8632 618.169 100.506C618.078 101.15 618.247 101.803 618.637 102.322L622.072 106.891C622.463 107.41 623.044 107.753 623.687 107.844C624.33 107.935 624.983 107.767 625.503 107.376L632.029 102.469L632.017 102.454C632.584 102.839 633.175 103.187 633.786 103.498L633.766 103.495L632.621 111.58C632.53 112.223 632.698 112.876 633.089 113.395C633.479 113.915 634.06 114.258 634.703 114.349L640.364 115.149C640.682 115.194 641.006 115.177 641.318 115.096C641.63 115.016 641.922 114.875 642.18 114.682C642.437 114.489 642.653 114.247 642.817 113.97C642.98 113.693 643.088 113.386 643.133 113.068L644.277 104.983L644.247 104.979C644.928 104.849 645.6 104.675 646.26 104.459L646.232 104.48L651.139 111.006C651.529 111.526 652.11 111.869 652.754 111.96C653.397 112.051 654.05 111.883 654.569 111.492L659.138 108.057C659.657 107.667 660 107.086 660.091 106.443C660.182 105.8 660.014 105.147 659.623 104.627L654.715 98.1008L654.681 98.1265C655.075 97.5489 655.431 96.9461 655.747 96.322L655.741 96.3639L663.826 97.5085C664.145 97.5537 664.469 97.5357 664.781 97.4556C665.092 97.3754 665.385 97.2347 665.642 97.0414C665.899 96.8481 666.116 96.606 666.28 96.3289C666.443 96.0519 666.551 95.7454 666.596 95.4268L667.395 89.7664C667.487 89.1233 667.318 88.4702 666.928 87.951C666.538 87.4317 665.957 87.0887 665.314 86.9974L657.229 85.852L657.223 85.8935C657.093 85.2063 656.918 84.5284 656.7 83.8638L656.726 83.8982L663.252 78.9916C663.509 78.7983 663.726 78.5562 663.889 78.2791C664.053 78.0021 664.16 77.6955 664.205 77.3769C664.25 77.0584 664.232 76.7341 664.152 76.4225C664.072 76.1109 663.931 75.8182 663.737 75.5611L660.302 70.9929C660.109 70.7357 659.867 70.5191 659.59 70.3554C659.313 70.1918 659.006 70.0844 658.688 70.0392C658.369 69.9941 658.045 70.0122 657.733 70.0924C657.422 70.1726 657.129 70.3135 656.872 70.5068L650.345 75.4195L650.366 75.4481C649.793 75.0573 649.195 74.7037 648.576 74.3894L648.608 74.394L649.753 66.3091C649.844 65.6658 649.675 65.0127 649.285 64.4934C648.895 63.9741 648.314 63.631 647.671 63.5397L642.01 62.7395C641.367 62.6487 640.715 62.8167 640.196 63.2067C639.677 63.5967 639.334 64.1767 639.242 64.8194Z" stroke="#1E223B" stroke-linecap="round" stroke-linejoin="round"/>
<path opacity="0.5" d="M389.841 189.318H415.264L441.787 207V189.318H460.569C462.914 189.318 465.162 188.387 466.821 186.729C468.479 185.071 469.41 182.822 469.41 180.477V131.841C469.41 129.496 468.479 127.248 466.821 125.59C465.162 123.932 462.914 123 460.569 123H389.841C387.496 123 385.248 123.932 383.589 125.59C381.931 127.248 381 129.496 381 131.841V180.474C381 181.635 381.228 182.785 381.672 183.858C382.116 184.931 382.767 185.906 383.588 186.728C384.409 187.549 385.384 188.2 386.457 188.645C387.53 189.089 388.68 189.318 389.841 189.318Z" fill="white"/>
<path opacity="0.39" d="M522.606 151.62C528.813 151.62 533.844 146.589 533.844 140.382C533.844 134.175 528.813 129.143 522.606 129.143C516.399 129.143 511.367 134.175 511.367 140.382C511.367 146.589 516.399 151.62 522.606 151.62Z" fill="white"/>
<path d="M389.841 189.318H415.264L441.787 207V189.318H460.569C462.914 189.318 465.162 188.387 466.821 186.729C468.479 185.071 469.41 182.822 469.41 180.477V131.841C469.41 129.496 468.479 127.248 466.821 125.59C465.162 123.932 462.914 123 460.569 123H389.841C387.496 123 385.248 123.932 383.589 125.59C381.931 127.248 381 129.496 381 131.841V180.474C381 181.635 381.228 182.785 381.672 183.858C382.116 184.931 382.767 185.906 383.588 186.728C384.409 187.549 385.384 188.2 386.457 188.645C387.53 189.089 388.68 189.318 389.841 189.318V189.318Z" stroke="#1E223B" stroke-width="2" stroke-linecap="round" stroke-linejoin="round"/>
<path d="M403.047 148.623H443.506" stroke="#1E223B" stroke-width="3" stroke-linecap="round" stroke-linejoin="round"/>
<path d="M403.047 159.113H428.521" stroke="#1E223B" stroke-width="3" stroke-linecap="round" stroke-linejoin="round"/>
<path d="M522.606 151.62C528.813 151.62 533.844 146.589 533.844 140.382C533.844 134.175 528.813 129.143 522.606 129.143C516.399 129.143 511.367 134.175 511.367 140.382C511.367 146.589 516.399 151.62 522.606 151.62Z" stroke="#1E223B" stroke-width="2" stroke-linecap="round" stroke-linejoin="round"/>
</svg>
