<?xml version="1.0" encoding="utf-8"?>
<!-- Generator: Adobe Illustrator 18.1.1, SVG Export Plug-In . SVG Version: 6.00 Build 0)  -->
<svg version="1.1" id="Ebene_1" xmlns="http://www.w3.org/2000/svg" xmlns:xlink="http://www.w3.org/1999/xlink" x="0px" y="0px"
	 viewBox="0 0 640 480" enable-background="new 0 0 640 480" xml:space="preserve">
<circle fill="#039AE3" stroke="#010507" stroke-width="3" cx="320.7" cy="240.3" r="97.7"/>
<g id="Ebene_2">
	<g>
		<g>
			<path fill="#F4F4F4" stroke="#070707" stroke-width="4" d="M371,288h-96.3c-6.6,0-12-5.4-12-12v-66.7c0-6.6,5.4-12,12-12H371
				c6.6,0,12,5.4,12,12V276C383,282.6,377.6,288,371,288z"/>
			<path fill="#039AE3" d="M381.3,209.7c0.4-0.9,0.6-1.9,0.6-3c0-4.4-3.6-8-8-8H271.7c-4.4,0-8,3.6-8,8c0,1.1,0.2,2.1,0.6,3H381.3z"
				/>
		</g>
		<path fill="none" stroke="#070707" stroke-width="4" d="M262.7,209.3H383H262.7z"/>
	</g>
</g>
<g>
	<path fill="#050913" d="M293.9,273.3c-6.4-2.9-9.6-8.2-9.2-15c0.4-6.4,4.4-11.5,10.8-13.4c2.3-0.7,3.8-1.3,4.5-4.2
		c2.8-11.3,16.5-14.9,24.6-6.3c2,2.1,3.5,2.8,6.3,1.9c3.5-1,7.5-0.4,9.8,2.1c4.4,4.6,10,6.8,15.2,9.9c0.9,1.1,1.2,2.3,0.4,3.6
		c-5.4-1.2-11-2.1-14.9-6.5c-3.3-3.6-7.1-5.3-12-3.8c-2.9,0.9-5-0.2-7.1-2.3c-7.6-7.8-15-5.9-17.9,4.4c-1,3.6-3.5,4.4-6.4,5.4
		c-6.6,2.1-9.6,7.1-8,12.8c0.9,3.2,2.9,5.5,5.9,7.1c1.3,0.7,3.5,0.7,3.1,3.2C297.5,273.6,295.6,272.7,293.9,273.3z"/>
	<path fill="#0E0C0D" d="M356,252c0-1.2,0-2.5,0-3.7c5,4.3,6.6,9.9,4.7,16c-2,6.2-7.3,10.2-14.3,10.4c-8.8,0.2-17.6,0-26.4,0
		c-6.3,0-12.6,0-18.9,0c-2.5,0-5,0-7.1-1.4c1.4-1.9,3.6-1,5.4-1.4c2-1.9,4.6-1.6,7.1-1.6c11.1-0.1,22.2,0,33.3,0
		c2.5,0,5,0.1,7.4-0.5c6.4-1.6,9.4-5.8,8.9-12.3C355.9,255.6,355,253.8,356,252z"/>
	<path display="none" fill="#64B4F5" d="M356,252c5.4,11.1,0.1,19.6-12.3,19.6c-14.8,0.1-29.6,0.1-44.3,0.2c-5.8-1-9.9-4.1-11.2-9.9
		c-1.1-5,0.2-10.3,4.8-12c6.3-2.4,9.4-6,12.1-12.1c3.3-7.2,13.6-6.8,18.2,0.1c1.9,2.7,3.2,3.3,6.3,2.2c5-1.9,9.8-0.3,12.7,4
		c1.6,2.4,3.4,3.9,6.4,3.9C351.9,248,353.8,250.3,356,252z"/>
</g>
</svg>
